<mxfile host="app.diagrams.net" agent="Mozilla/5.0 (Windows NT 10.0; Win64; x64) AppleWebKit/537.36 (KHTML, like Gecko) Chrome/136.0.0.0 Safari/537.36 Edg/136.0.0.0" version="27.0.6">
  <diagram name="페이지-1" id="eZgHANPWDGWKMbumPNTA">
    <mxGraphModel dx="1148" dy="652" grid="1" gridSize="10" guides="1" tooltips="1" connect="1" arrows="1" fold="1" page="1" pageScale="1" pageWidth="827" pageHeight="1169" math="0" shadow="0">
      <root>
        <mxCell id="0" />
        <mxCell id="1" parent="0" />
        <mxCell id="sp5y3ripQascYOn5C88f-1" value="" style="rounded=0;whiteSpace=wrap;html=1;direction=south;strokeWidth=2.5;" vertex="1" parent="1">
          <mxGeometry x="100" y="210" width="270" height="170" as="geometry" />
        </mxCell>
        <mxCell id="sp5y3ripQascYOn5C88f-3" value="" style="ellipse;whiteSpace=wrap;html=1;aspect=fixed;strokeWidth=2.5;" vertex="1" parent="1">
          <mxGeometry x="70" y="180" width="70" height="70" as="geometry" />
        </mxCell>
        <mxCell id="sp5y3ripQascYOn5C88f-5" value="데이터 수집" style="text;strokeColor=none;fillColor=none;html=1;fontSize=15;fontStyle=1;verticalAlign=middle;align=center;" vertex="1" parent="1">
          <mxGeometry x="140" y="210" width="100" height="40" as="geometry" />
        </mxCell>
        <mxCell id="sp5y3ripQascYOn5C88f-6" value="데이터 수집&amp;nbsp;&lt;div&gt;모듈&lt;/div&gt;" style="rounded=0;whiteSpace=wrap;html=1;fontStyle=1" vertex="1" parent="1">
          <mxGeometry x="260" y="290" width="80" height="40" as="geometry" />
        </mxCell>
        <mxCell id="sp5y3ripQascYOn5C88f-10" value="&lt;div&gt;&lt;font style=&quot;font-size: 13px;&quot;&gt;&lt;b&gt;&lt;br&gt;&lt;/b&gt;&lt;/font&gt;&lt;/div&gt;&lt;font style=&quot;font-size: 13px;&quot;&gt;&lt;b&gt;&lt;div&gt;&lt;font style=&quot;font-size: 13px;&quot;&gt;&lt;b&gt;&lt;br&gt;&lt;/b&gt;&lt;/font&gt;&lt;/div&gt;&lt;div&gt;&lt;font style=&quot;font-size: 13px;&quot;&gt;&lt;b&gt;&lt;br&gt;&lt;/b&gt;&lt;/font&gt;&lt;/div&gt;INPUT&lt;/b&gt;&lt;/font&gt;" style="html=1;shadow=0;dashed=0;align=center;verticalAlign=middle;shape=mxgraph.arrows2.arrow;dy=0.6;dx=40;direction=south;notch=0;fillColor=#f8cecc;strokeColor=#b85450;" vertex="1" parent="1">
          <mxGeometry x="230" y="130" width="70" height="100" as="geometry" />
        </mxCell>
        <mxCell id="sp5y3ripQascYOn5C88f-11" value="로그 파일 입력&lt;div&gt;모듈&lt;/div&gt;" style="rounded=0;whiteSpace=wrap;html=1;fontStyle=1" vertex="1" parent="1">
          <mxGeometry x="115" y="320" width="80" height="40" as="geometry" />
        </mxCell>
        <mxCell id="sp5y3ripQascYOn5C88f-12" value="외부 연동/표준화 모듈" style="rounded=0;whiteSpace=wrap;html=1;fontStyle=1" vertex="1" parent="1">
          <mxGeometry x="110" y="260" width="90" height="40" as="geometry" />
        </mxCell>
        <mxCell id="sp5y3ripQascYOn5C88f-23" value="" style="endArrow=classic;startArrow=classic;html=1;rounded=0;" edge="1" parent="1">
          <mxGeometry width="50" height="50" relative="1" as="geometry">
            <mxPoint x="210" y="270" as="sourcePoint" />
            <mxPoint x="250" y="300" as="targetPoint" />
            <Array as="points" />
          </mxGeometry>
        </mxCell>
        <mxCell id="sp5y3ripQascYOn5C88f-24" value="" style="endArrow=classic;startArrow=classic;html=1;rounded=0;" edge="1" parent="1">
          <mxGeometry width="50" height="50" relative="1" as="geometry">
            <mxPoint x="210" y="350" as="sourcePoint" />
            <mxPoint x="250" y="320" as="targetPoint" />
            <Array as="points" />
          </mxGeometry>
        </mxCell>
        <mxCell id="sp5y3ripQascYOn5C88f-28" value="" style="rounded=0;whiteSpace=wrap;html=1;direction=south;strokeWidth=2.5;" vertex="1" parent="1">
          <mxGeometry x="470" y="210" width="270" height="170" as="geometry" />
        </mxCell>
        <mxCell id="sp5y3ripQascYOn5C88f-29" value="" style="ellipse;whiteSpace=wrap;html=1;aspect=fixed;strokeWidth=2.5;" vertex="1" parent="1">
          <mxGeometry x="440" y="180" width="70" height="70" as="geometry" />
        </mxCell>
        <mxCell id="sp5y3ripQascYOn5C88f-30" value="서버" style="text;strokeColor=none;fillColor=none;html=1;fontSize=15;fontStyle=1;verticalAlign=middle;align=center;" vertex="1" parent="1">
          <mxGeometry x="510" y="210" width="100" height="40" as="geometry" />
        </mxCell>
        <mxCell id="sp5y3ripQascYOn5C88f-31" value="EDA&lt;div&gt;모듈&lt;/div&gt;" style="rounded=0;whiteSpace=wrap;html=1;fontStyle=1" vertex="1" parent="1">
          <mxGeometry x="480" y="290" width="80" height="40" as="geometry" />
        </mxCell>
        <mxCell id="sp5y3ripQascYOn5C88f-32" value="보고서 생성&lt;div&gt;모듈&lt;/div&gt;" style="rounded=0;whiteSpace=wrap;html=1;fontStyle=1" vertex="1" parent="1">
          <mxGeometry x="623" y="330" width="80" height="40" as="geometry" />
        </mxCell>
        <mxCell id="sp5y3ripQascYOn5C88f-33" value="데이터 품질 관리&lt;div&gt;모듈&lt;/div&gt;" style="rounded=0;whiteSpace=wrap;html=1;fontStyle=1" vertex="1" parent="1">
          <mxGeometry x="617" y="250" width="100" height="40" as="geometry" />
        </mxCell>
        <mxCell id="sp5y3ripQascYOn5C88f-34" value="" style="endArrow=classic;startArrow=classic;html=1;rounded=0;" edge="1" parent="1">
          <mxGeometry width="50" height="50" relative="1" as="geometry">
            <mxPoint x="664.5" y="290" as="sourcePoint" />
            <mxPoint x="664.5" y="330" as="targetPoint" />
            <Array as="points" />
          </mxGeometry>
        </mxCell>
        <mxCell id="sp5y3ripQascYOn5C88f-35" value="" style="endArrow=classic;startArrow=classic;html=1;rounded=0;" edge="1" parent="1">
          <mxGeometry width="50" height="50" relative="1" as="geometry">
            <mxPoint x="570" y="300" as="sourcePoint" />
            <mxPoint x="610" y="277" as="targetPoint" />
            <Array as="points" />
          </mxGeometry>
        </mxCell>
        <mxCell id="sp5y3ripQascYOn5C88f-36" value="" style="endArrow=classic;html=1;rounded=0;strokeWidth=2;" edge="1" parent="1">
          <mxGeometry width="50" height="50" relative="1" as="geometry">
            <mxPoint x="390" y="289" as="sourcePoint" />
            <mxPoint x="440" y="289" as="targetPoint" />
          </mxGeometry>
        </mxCell>
        <mxCell id="sp5y3ripQascYOn5C88f-37" value="" style="endArrow=classic;html=1;rounded=0;strokeWidth=2;" edge="1" parent="1">
          <mxGeometry width="50" height="50" relative="1" as="geometry">
            <mxPoint x="440" y="315" as="sourcePoint" />
            <mxPoint x="390" y="315" as="targetPoint" />
          </mxGeometry>
        </mxCell>
        <mxCell id="sp5y3ripQascYOn5C88f-43" value="" style="rounded=0;whiteSpace=wrap;html=1;direction=south;strokeWidth=2.5;" vertex="1" parent="1">
          <mxGeometry x="840" y="210" width="300" height="170" as="geometry" />
        </mxCell>
        <mxCell id="sp5y3ripQascYOn5C88f-44" value="" style="ellipse;whiteSpace=wrap;html=1;aspect=fixed;strokeWidth=2.5;" vertex="1" parent="1">
          <mxGeometry x="810" y="180" width="70" height="70" as="geometry" />
        </mxCell>
        <mxCell id="sp5y3ripQascYOn5C88f-45" value="사용자" style="text;strokeColor=none;fillColor=none;html=1;fontSize=15;fontStyle=1;verticalAlign=middle;align=center;" vertex="1" parent="1">
          <mxGeometry x="880" y="210" width="100" height="40" as="geometry" />
        </mxCell>
        <mxCell id="sp5y3ripQascYOn5C88f-46" value="AI 추천/피드백&lt;div&gt;모듈&lt;/div&gt;" style="rounded=0;whiteSpace=wrap;html=1;fontStyle=1" vertex="1" parent="1">
          <mxGeometry x="846" y="290" width="90" height="40" as="geometry" />
        </mxCell>
        <mxCell id="sp5y3ripQascYOn5C88f-47" value="외부 연동/표준화&lt;div&gt;모&lt;/div&gt;" style="rounded=0;whiteSpace=wrap;html=1;fontStyle=1" vertex="1" parent="1">
          <mxGeometry x="1015" y="330" width="100" height="40" as="geometry" />
        </mxCell>
        <mxCell id="sp5y3ripQascYOn5C88f-48" value="사용자 인터페이스&amp;nbsp;&lt;div&gt;모듈&lt;/div&gt;" style="rounded=0;whiteSpace=wrap;html=1;fontStyle=1" vertex="1" parent="1">
          <mxGeometry x="1010" y="250" width="110" height="40" as="geometry" />
        </mxCell>
        <mxCell id="sp5y3ripQascYOn5C88f-49" value="" style="endArrow=classic;startArrow=classic;html=1;rounded=0;" edge="1" parent="1">
          <mxGeometry width="50" height="50" relative="1" as="geometry">
            <mxPoint x="1064.5" y="290" as="sourcePoint" />
            <mxPoint x="1064.5" y="330" as="targetPoint" />
            <Array as="points" />
          </mxGeometry>
        </mxCell>
        <mxCell id="sp5y3ripQascYOn5C88f-50" value="" style="endArrow=classic;startArrow=classic;html=1;rounded=0;" edge="1" parent="1">
          <mxGeometry width="50" height="50" relative="1" as="geometry">
            <mxPoint x="950" y="297.25" as="sourcePoint" />
            <mxPoint x="1000" y="262.75" as="targetPoint" />
            <Array as="points" />
          </mxGeometry>
        </mxCell>
        <mxCell id="sp5y3ripQascYOn5C88f-51" value="" style="endArrow=classic;html=1;rounded=0;strokeWidth=2;" edge="1" parent="1">
          <mxGeometry width="50" height="50" relative="1" as="geometry">
            <mxPoint x="760" y="289" as="sourcePoint" />
            <mxPoint x="810" y="289" as="targetPoint" />
          </mxGeometry>
        </mxCell>
        <mxCell id="sp5y3ripQascYOn5C88f-52" value="" style="endArrow=classic;html=1;rounded=0;strokeWidth=2;" edge="1" parent="1">
          <mxGeometry width="50" height="50" relative="1" as="geometry">
            <mxPoint x="810" y="315" as="sourcePoint" />
            <mxPoint x="760" y="315" as="targetPoint" />
          </mxGeometry>
        </mxCell>
        <mxCell id="sp5y3ripQascYOn5C88f-54" value="" style="endArrow=classic;startArrow=classic;html=1;rounded=0;" edge="1" parent="1">
          <mxGeometry width="50" height="50" relative="1" as="geometry">
            <mxPoint x="950" y="320" as="sourcePoint" />
            <mxPoint x="1000" y="360" as="targetPoint" />
            <Array as="points" />
          </mxGeometry>
        </mxCell>
        <mxCell id="sp5y3ripQascYOn5C88f-55" value="&lt;div&gt;&lt;font style=&quot;font-size: 13px;&quot;&gt;&lt;b&gt;&lt;br&gt;&lt;/b&gt;&lt;/font&gt;&lt;/div&gt;&lt;font style=&quot;font-size: 13px;&quot;&gt;&lt;b&gt;&lt;div&gt;&lt;font style=&quot;font-size: 13px;&quot;&gt;&lt;b&gt;&lt;br&gt;&lt;/b&gt;&lt;/font&gt;&lt;/div&gt;&lt;div&gt;&lt;font style=&quot;font-size: 13px;&quot;&gt;&lt;b&gt;&lt;br&gt;&lt;/b&gt;&lt;/font&gt;&lt;/div&gt;OUTPUT&lt;/b&gt;&lt;/font&gt;" style="html=1;shadow=0;dashed=0;align=center;verticalAlign=middle;shape=mxgraph.arrows2.arrow;dy=0.6;dx=40;direction=south;notch=0;fillColor=#f8cecc;strokeColor=#b85450;" vertex="1" parent="1">
          <mxGeometry x="1100" y="370" width="70" height="100" as="geometry" />
        </mxCell>
        <mxCell id="sp5y3ripQascYOn5C88f-56" value="" style="shape=image;verticalLabelPosition=bottom;labelBackgroundColor=default;verticalAlign=top;aspect=fixed;imageAspect=0;image=data:image/png,iVBORw0KGgoAAAANSUhEUgAAAgAAAAIACAYAAAD0eNT6AAAAAXNSR0IArs4c6QAAIABJREFUeAHtnQn8fVPV/z9+hp8pQ4QQSsaKRGT2lEoD5UlpekJFKSqh8pRHNCFKaaQ80iA8ZY5mEo2S0oBKhiJDxsz8/3flXr/7/X7v994z7LXP3ue89+v1fd37PfecdfZ+r7XXXmefPUgkCEAAAhCAAAQgAAEIQAACEIAABCAAAQhAAAIQgAAEIAABCEAAAhCAAAQgAAEIQAACEIAABCAAAQhAoBaB+SQtKulxklbgrzUMTJ+mVxIEIAABCHSIwBxJq0naVtKbJR0h6TRJF0m6VNKfe8dvkHSnpIcl/T/+WsvgIUm3S/qbpMslXSzpPElnSfqspLdL2q5vL2Y3JAhAAAIQyITAIpK2lvReSWdI+qOk+2jQW9ugewZrd/cDxJMkHSzppZKWzqQekE0IQAACrSewjKQdet27h/ef6Gns6cHwDAqsB+GXfXuznoLFWl/DKCAEIACBhAis3OvG3UfST+iy58m+4d6d+yVd0O8h2CihOkJWIAABCLSGwIr997MX0ujT6Dfc6I/rYfhD//XTqq2peRQEAhCAQAME5kratf+ExeA8uvbHNbyp/Wb2er6kN0pasoG6wy0hAAEIZEnApt/ZoKt/JPykl1qDQ37SDZDukWQDCTfOsjaSaQhAAAIRCGwo6QRG7dPF3+LA7zuStopQl7gFBCAAgSwImEP8UYudPk/n6T6dN6Ubs/fnZVE7ySQEIAABBwJrSzqdhp8n/g7bwM96ixFt71C3EAkBCEAgSQLLSfpMb7T0Ax12/E09eXLfNHsjrEfgqUnWVjIFAQhAIAABW6XvfZLuoOHnqR8bmGEDFhB/tLdU9eIB6hoiIAABCCRDYHNJV+D0Zzh9nsjTfCJvUi/XStopmZpLRiAAAQhUJGBP/UdKsiVUm3Sq3Bv+udnAuZKeXLHecRkEIACBRgls2t9xLTfHS34JFlKxAVtDYO9GazE3hwAEIFCCwML9d5k89dOQptKQ5p6Pb0paqkQd5FQIQAAC0Qk8ob9bWu4Ol/wTvKRmA3+VtEn0Gs0NIQABCBQgsCXL9zLOgbEerjZguw/u11sqe74C9ZFTIAABCEQhsKckc06pPTWRH3TSRhs4W9IyUWo2N4EABCAwC4GFJB1Dw0/ggw1Et4ErJT1xlnrJYQhAAAKuBOwJ5EIcf3TH38YnWspUrafm75LWc63lCIcABCAwjcDykn5L40/jjw00bgO3StpiWv3kXwhAAAIuBFZmfn/jTp8n5mpPzG3ldjebCrn4OoRCAAJDBOyd41UtfeqzdQv+0e/Z+L4kW4mNv3Yw+E5v+92LekvsXibpakn/bOFmVLaXwK5DdZWvEIAABIIRWEvSdRk3/r+TdLykw3obEr1T0mt6Yxie23+Haq805g9GCkG5ELCNdzbo9Wi9qpfh90s6UdKvJNkTdY69BQ9Leksu8MknBCCQB4F1Mpzjb0/zX+31WOwiaaU8MJPLRAgs2H+vfqCkH0q6N6OAwIKAVybCkWxAAAKZE1ih17Voq5Cl/kRkT23W1WsLpazPYimZW11a2bflrZ8j6ROZBMK2Jsfz00JIbiAAgdwIWBfpxQk3/vbe3tZJt658c9IkCHgTWKC33PWLJZ0kyTbrSTUwvoulg71NAfkQaC8BeyduK46l6ODuk/TF3jtbG5dAgkBTBJaU9GZJf0q0ntzcC1Ts9R0JAhCAQCkCn0/Qqd0p6Qje6ZfSIyf7E7Bg+dX9WQapBczX9IJl26SLBAEIQKAQgQMSa/xvlPS+3jvYpQvlnpMg0AwB26RnxwRfm9miXYs2g4S7QgACORHYTpKNJE7hSeYmSW/tTd1bJCeA5LXzBCwQeH3Pds1+U6hHlgd7ZUaCAAQgMCsBG/Fv0+dScFpnSbL8kCCQK4HH9l5XHZtQQG1rX5AgAAEIzCBgTy3fTaDxt9HLe8zIHQcgkC+BTSX9OoG6ZWNo1swXIzmHAAS8CLwnAQdly7Wu7lVA5EKgQQK2uNDHE6hjFojMbZADt4YABBIj8KyG10a3hUvey3K8iVkF2fEg8JL+XgRNvmb7jEfBkAkBCORHwOYy/6XBJxNbo/8Z+WEjxxCoTGBVST9tsM5Z8PGflXPPhRCAQGsIfLZBR2Rr9bOCX2tMiYKUIGCvBI5psO5d33slYcE/CQIQ6CiBjSXZcrpNdEceJ2lOR7lTbAgMCBzSUP2zOv/JQSb4hAAEukXAGt+m1vm3VQZt1gEJAhCQ9mooEH+wvx0yOoAABDpGwJxOE0/+n6Lx75ilUdwiBHaWZHtcxK6TNhaBYLyIhjgHAi0hsLyk2xpwNjYNigQBCIwmYLsMPtBAvWTdjdH64CgEWkngKw04mcNbSZJCQSAsgdc1sHLgLZKWDVsMpEEAAikS2KSBxv+DKYIgTxBIlMB+DdRRW7KYBAEItJyArbEf8z0j3f4tNyiK50Lgo5Hrqb16WM2lJAiFAASSILBhZKfyC0k235kEAQiUI2AD874eub5+rlwWORsCEMiJwGkRHcodkp6cExzyCoHECCwu6fKIddZmIayUGAOyAwEIBCCwXuTBRa8NkGdEQKDrBNaXdE/EIOCorgOn/BBoI4FTIjqRE9oIkDJBoCECb4pYd++WtFxD5eS2EICAA4F1Iz79XynJui5JEIBAOAInRgwCDguXbSRBAAJNEzg6kvOwbX03arqw3B8CLSSwlKR/RKrHd0pauoUMKRIEOkdgbsT9x23+MgkCEPAh8F+RAgCbJry3TxGQCgEIxCTwykhO43zWFI+pVu7VUQI/jFSff95RvhQbAq0i8N1IDmPLVlGjMBBIk8A6kuxVW4zFvNZKEwG5ggAEihBYNdLgvx8UyQznQAACQQh8JFIAwBLeQdSFEAg0Q+CgSI5im2aKx10h0EkCS0TazfMqXut10r4odAsI2FKif40QANi7fxIEIBCXgD2dx3gNsFXcYnE3CEAgBIENIjmIZ4fILDIgAIFSBGz73n9FqOPsElhKLZwMgTQI/HcE53BBGkUlFxDoJAHbadO7F+BWSQt0ki6FhkDGBH4cwTk8N2M+ZB0CuROwjXtsAx/vIGCz3EGRfwh0iYCt4vWgs2O4qEtAKSsEEiXwVed6bsHF+xItO9mCAARGENg5glPYYcR9OQQBCMQl8PwIdZ1pvnF1yt0gUIvA8c5O4S5JtsQwCQIQaJbA/JL+7lzf75W0cLPF5O4QgEARAjb97wZnh3BqkYxwDgQgEIXAEc713V4DPCdKSbgJBCBQi8AaEZzB62vlkIshAIGQBNaLUOc/FDLDyIIABHwIvMLZGTwsaQWfrCMVAhCoSOC3zvX+JxXzxWUQgEBEAoc6OwJ2CYuoTG4FgYIEvF8DPCBp0YJ54TQIQKAhAt92DgAObKhc3BYCEJidwAuc672NA3j67LfnFwhAIAUCNzk7AltimAQBCKRFYHFJ9pTuuSjQK9MqMrmBAASGCazs7ACuG74Z3yEAgaQIXOhc/9+fVGnJDAQgMIWALc7j+QTwuSl34x8IQCAlAh9wrv8nplRY8tIdAgtKWluS7Tu/vaRXS3qTpP0kHSLJNsX4giQz0K93+O9Xzg7ABgB2mW9Xy2716n8lHd1bAOojva7m9/b2o3+HpDdKsm5h2xPiyZKsnpKaI7Cdc/2/pLmicecuEFhG0uaS3tAbcXq4pDMkXR7h3ZbnUzOyfXsl4JsOX9t/4ipJ35dk28geIOllveDcXk2R/Ams5hwA2PbDttAYCQJBCKzZf5K3J6vrnY2XhiKdhgJddE8X1/R7j94u6Zn0FgTxn9OFWON8t7MfXWX6TfkfAkUJPKn/dP8VSX9zNlQame41Mug8H51bQ/VDSftIemJRB8J5Ewlc6uxX2QJ8ogo4YZjA6r1/bPTon5wNE+efj/NHV+hqug38uucfDpK0/rDz4HtpAic7+9lXlc4RF3SOwJK9J/zdextIXOBsjNOdCP/TsGAD+dvAX3q7z9mKlvQMlG86vGcCmF8nQWAGAduW8oX993z30PC7Tsejkcu/kUOHk3X4kKSzJNnodgafzXC5Iw/YzAxP27JXNiQIPErApv7Y7nBXOBuep1Ej29dpwBe+dW3gSknvlLT0o56HL6MIeG8GxlLgo6h38NjCkt4q6WoafteIu67j5Hoa3zbZgE1FO1LSsh30uUWK7L0ngE3PJnWYwGKS9mXaHo0+gR820KAN3NlfBMzGG5HmEdjCWSefmXcrvnWJgHX17y/pZmcDa9PTCmXh6Rsb8LWBf0p6D1vVPtoU2SwKT5s74dE78aUzBJ4t6Q/OhuVptMj2dQrwhW/TNnBDf2nirg8WtJkTnrr4ZmdaPQqqFfvr63saFLJ9Kyx84dslGzhPkq0w2tW0gnMAcE5XwXap3Av0V+i6w9mYuuSYKCsNMTYQxwbu7W9Y1MXNibwDgHO71BB2sawbS/oNDb9rNxoNQZyGAM7d5vxbSc/qmBMnAOiYwkMW1xZ5uJ/Gn8YfG8AGWmIDtpiQbWFsC5V1IREAdEHLgctoi2uc1pIKz1Nft5/60D/6H2UDP5L+PaYpsOtMThwBQHIqSTtD1uVve3iPqjQcgws2gA20xQZulPS8tN1x7dwRANRG2B0B76DLn8CH4A8b6JAN2CsB2zCnra8ECAC6035XLukikv6vQ5W+LU8wlIOncWwgjA18X9JSlT1ouhcSAKSrmyRyZu/7f0zjz1MfNoANdNwGbJbASkl45XCZIAAIx7J1kszYL+t4pecJKswTFBzh2AYbuEbSui3y9AQALVJmyKKsw859PPER/GED2MAMG7D9BDYP6WwblEUA0CD8VG9ti2GwiQ9PbG14YqMM2LGHDdwt6SWpOvAS+SIAKAGrC6fa/tC2h7ZHpYkp82+SbOCObUf5Lkl7SvovSTv2p/Zs1lvL4On8wQAbcLGBbSS9ovcgsVd/G97PSbKNYWw80RWSbmuBj3mw94p0p8wbBQKAzBUYMvtbSbonw4p5paTPS3qtpA0lPSYkFGRBAAIuBOZKsleNFiScLinHvUTuk7SdC504QgkA4nBO/i7rZRSVXy/J9pneVdIqyZMlgxCAQBECtqnYFpIO7vXSXSTJnrBj9hpWvZf1mFq+c0wEADlqLXCeV5NkXeZVK0CM66xn4uv9aLuti3IEViviIJA1gSX7r+zsNd51ifsne6WxQYa0CQAyVFrILC8r6fKEK9eFkvaQZM6ABAEIdJOAbdW7m6Q/JOyrbOngtTNTDwFAZgoLmd3FJP0s0Qp1Vge35gypW2RBoI0E5pP00l5P4E8T9VtXS3pcRuAJADJSVsisWjf6OYlVIlt3++T+qOyQZUUWBCDQPgI20yA1H2avQ8+TZOMZckgEADloySGPH06s8T8jw+4zB7UgEgIQKEnApvOemNigwU+ULENTpxMANEW+wfvatJWHEwkAbGvhHRpkwa0hAIF2EHhab9DgpYn4NesJeF0GWAkAMlBSyCza+v43JVBJbP7shyTZToMkCEAAAiEILNTzKYdJsteJMWYnjbuHzVyydUlSTgQAKWsncN7svdQFCVSMX/S67NYKXDbEQQACEBgQ2LL3BP6XBHydbR60zCBTCX4SACSoFK8sfSSBCnGUJIvSSRCAAAQ8CdiKoF9MwOfZ+iWpJgKAVDUTOF+2xn+T7/1tBy2bvkOCAAQgEJOAbdrzj4YDgZfFLHCJexEAlICV66lLNVwBbK2BVXOFR74hAIHsCSwnydYWGffO3vM3C0Bs0bXUEgFAahpxyM+nGjR8m97HQD8HpSISAhAoRWCOpC816AtPKpXbOCcTAMTh3NhdntHgiFh7/8a6/Y2pnhtDAALTCFgQ8IUGg4DUtg8mAJhmIG3615bNbGrJTJviR4IABCCQGgHzi59tKAiw/QKWTggIAUBCygidld0bMvK3hy4I8iAAAQgEJmCr9Xm+959N9hGBy1FHHAFAHXoJX2tzT29uwMAPTJgJWYMABCAwTMAa49kaaq/j90qyLdhTSAQAKWjBIQ/HNGDYn3YoByIhAAEIeBJoYn2Ur3kWqIRsAoASsHI51fakjr0U5imSbIANCQIQgEBuBD4Q+YHJ1mTZKAFIBAAJKCF0FmJPdfmhpLmhC4E8CEAAAhEJnB45CLBtg5tOBABNayDw/Z8o6YGIhnxdogtcBMaKOAhAoOUEbNzUtRF9p40xeHHDTAkAGlZA6Nt/LqIBPyhpi9AFQB4EIACBhghsHfn16Y8bKufgtgQAAxIt+LStfm2bXa/Rq9PlHtACZhQBAhCAwDCBgyP6UPOpGw/fPPJ3AoDIwD1v9/GIhnuOJFtQgwQBCECgTQRs9dKY26af2CA8AoAG4Ye89eMk/StSAGCrWdn9SBCAAATaSOAJkmwH0+m9nh7/25itVRqCSADQEPjQt31/JGO1CrBr6MwjDwIQgEBiBHaM6FM/2lDZCQAaAh/yttYV/5dIxmqDVuj6D6k9ZEEAAqkS+Ewkv3qbpMUbgEAA0AD00LfcMpKR2qj/9UJnHnkQgAAEEiWwlCRrnD26/qfL3KMBBgQADUAPfctjIxmoDTIkQQACEOgSgUMi+VdbUC12IgCITTzw/RaOFKHaxkJLBM474iAAAQikTsC27709QhBgy7evGBkGAUBk4KFvt3MEw7SuqveGzjjyIAABCGRC4IOR/Ow+kXkQAEQGHvp2Z0cwzFt5+g+tNuRBAAIZEbBlgu+M4Gt/HpkJAUBk4CFvt7wkG5g3fTBJ6P9tZSwSBCAAgS4TiLVt8OoRIRMARIQd+lZviND43yHpsaEzjjwIQAACmRFYVtJdEXxuzNetBACZGeFwdr8awRgPH74h3yEAAQh0mID5w9A9rNPlXRSRLwFARNihb3V9BGNcO3SmkQcBCEAgUwLLRVhy3ZYGjrUoEAFApoa4ToTGP/aAlExVQbYhAIEOETg5gu/dLhJPAoBIoEPfZq8IRmj3IEEAAhCAwDwCr4vge2O9eiUAmKfXrL5909kI75dkg15IEIAABCAwj4D5RVu0Z/q7+5D//2Le7Vy/EQC44vURPifCVpWn+2QdqRCAAASyJ3ChcwBg07uXjECJACAC5NC3eIaz8Vkku1voTCMPAhCAQEsIHBDBBz8/Aivb2fUJkjaU9AJJu/QGOe4vybYn/pKkcyRdLOlaSfdWKPO5EcrQuVvsXkERZbunVu0cVQoMAQhAoBiBpwb0wX+X9F1JR0ky375ZpKf/YiWdepb1Sjxd0qsl2fLI9ir6j2MWpCMAmMovyH9HBDS+UYHBn4PkEiEQgAAE2kvgryX98C2SfiDpaElvlrSFJNtoqA1pIUkWFL2iV5j3S7KZEpdJOqMNhUutDGeWNLxRjfy4Y7a9MAkCEIAABGYnYA35OD96o6RTJNlsqqdJsu52EgRqE7h8guGNM8oiv1n3DgkCEIAABGYnYO/oh/2pLcx2kqQ9e0/A685+Gb9AoDqBBXpb89pKUcOGF/r746tnjyshAAEIdILAXEknSNpD0lqdKDGFbJzAms6Nv3VbkSAAAQhAAAIQSIzA9s4BwAWJlZfsQAACEIAABCDQ245yP+cAgAGAmBkEIAABCEAgQQKTRp7WHQ9gAQYJAhCAAAQgAIHECBzv3ANgrxhIEIAABCAAAQgkRsB7EyBGsyamcLIDAQhAAAIQMAK2ZGTdbv5x17MDIHYGAQhAAAIQSJDAT50DAJvbSoIABCAAAQhAIDECv3MMAO5PrKxkBwIQgAAEIACBPoFrHAMA26yCBAEIQAACEIBAggRudQwAbHcrEgQgAAEIQAACCRJ40DEA+G2C5SVLEIAABCAAAQg4Nv42M+DXEIYABCAAAQhAIE0C46bw1f2NACBNnZMrCEAAAhCAgOsaALkHALYH90v5g0EDNoBrggAEIOBOoO5T/rjrcw8ADnV+RTKOHb/5LlCVOl/3is8NIAABCHg6QgKAbjdinrbVdtl4JggME1hJ0vMlvVXSdpIeM/wj3yFQlYCnIyUAIADwtK82y65an7muPQSWlLSHpB+P6Il8QNLBkuZvT3EpSRMEPJ0oAQABgKd9tVl2E76AezZPYAFJL5R0kqR7RjT8023e9nKZ03y2R+bgGZJsO/jjJB0u6SX0XIzk1OjB6QYV8n8CAAKAkPbUJVmNOgVuHp3A+r3G8UhJNxRo9KfXg7dEz+34Gy4t6QuSHh5RltskHSbp8eNF8GssAtONKeT/BAAEACHtqUuyYtV/7tMcgRUkvVPSpSMayjK2bqu5LtZcMabc2Xojiuwwe18/SFh7ytX8E51AGUMrey4BAAFAWZvh/EdsJroj4IZRCCwsaWdJZ0sKuQrra6PkfvJN3lMymLFegtMkbTZZNGd4EPB0uAQABACe9tVm2R51HZnNEdhc0jGSrAvcw26/01zRHr3zEpJur1E+G+y4Q29w43yPSuSLOwEPYxzIJADwqewDvny2l697xecG7gSe2GsMD5L0pxqNYtE6/pAkmyrYZNo/UDl/L2k3SQs1WZiu3LuogVU5jwCgvQ1UFXvgmuL20BX/07Zy2lPwGyT9aJZBcJ514N0NwrTG+m+BAoABI5NnQYUxJTkRGMD2+CQAKO7wPfgjM1/+TtUdsQ4EbC6+Lc7zNUl3B24Ey9Th3zmUrahIe2Ivk9cy5zJzoKgWKpxXRhFlzyUA8KsUZXXB+XnpokJV5pLIBJ7WG33/0d5iPX93bPzK1tsNIzOw29k7e+u2L5vXsuczc8BBuWWVUOZ8AgD/SlFGH5ybjz4cqjoiAxBYrjeQ7x29wWq/itDgVamvnwhQxrIito/MgpkDZTU05vwqRlb0GgKAfBqcojrlvDg6HVNl+SkygbmSXi7pTEm2BG/KdeBGSQtG5nNBg0xs5oAFIMwcqKh0T2MmAEjbWXjqHtn1dF+xOnNZQAKbSvqcJFtoJyd7tgYxVjJGKbBh5kBFjXsqjwAgjcrhqWNk++i4YnXmspoEVu0t0PM+SVck0rBVqV+n1GRQ5vJTE+PEzIEy2nNWHgGAT+NQxSlwTV66KFmNOb0GAdta10ax/7CBqXse9fJeSbYev3daK2FeNnPgUPYcmGwCHgY4kJl7APBiSUfxB4MGbGByzeWMOgRszfrnSfpKb675v5wfhAb+MObnm+vAKXjtsRlwY+bABGV6GmXuAcAEdPwMAQhkRuAp/d3orsug8arjmy9y1ottZGQ9DXXyGPNaZg7MYhCeSiAAmAU6hyEAgWgElpX0Nkm/zKjBCuGX13Ak/JGMWdqsBWYO9I0jhKHNJoMAwLEGIhoCEBhLYBFJH8jsSXU2X1rl+CFj6VT/0cZM5DYzYhQ/Zg44R3EEANUrGVdCAALVCSzZ23b3D87+bVSjktKxq5zmx+/bMq6dnjngabAEANUdGFdCAALVCZzYskaqqp/eqjrCkVfaIkPXtpRtJ2cOVDWsItcRAIysQxyEAAQcCazb0gaqiM+dfs4XAnPepQNsOzVzYLrBhPyfACBw7UMcBCAwkcCeHWikivrp23uzHmwsRIhky+3+tkNsBzMHbLXD1qaihlTlPAKA1poNBYNAsgQO71AjVcQvvyqQpl7YYa42c+BFgTgmJaaIAVU9hwAgKVWTGQh0gsAbOtxQjfLV5wTS+nlw1dck2QDT1qRRBhPqGAFAa8yEgkAgGwIb0lBNWaDnwd4yx1vX1N4mMH2UqW0FPX9NnslcHqqxHyWHACAZNZMRCHSKwJU0WI82WOabb5L0xIoWYO/+fwLPKTz3rsgyuctGNdyhjhEAJKduMgSBThD4HxqsKQ2W+fTLJW1WQfu2r0CoNqEtcoxlK5KnQggAWmEiFAIC2RGwp10bxe3p33KUbUyOl7R8QY3awDebFpdjWT3z/FBvt8GFCzJM+jRPSAQASauezEGg1QTOp+GateG+S9IpvV4BmyGwxAgrsN0SX9/hZZSLtIvLjeCW3aEiBa16DgFAduZAhiHQGgLMBij25G5P+N+StLukbSTtJckGulX1+1247oq21BJPZREAtMVKKAcE8iNgT7Z305DRkDvYwKfyqw6jc0wAMJoLRyEAgfwJsCcAT/Kh2zgbR7FW/lXjkRKEhjMsjx6AtlgJ5YBAngS2c3j6G/ZxfO9egHFanlVhdK49DZgAYDRzjkIAAnEI2IIt1xME8BogoA1UmUoZx9or3IUAoAI0LoEABLIhcERA5+/pL5Gdfm/ChdlYfcGMehodPQAFlcBpEICAG4H1CADoAQhkAy9xs9KGBBMANASe20IAAtEIXBKoAfD0l8hOuwfgj5JsWeRWJU+jowegVaZCYSCQLYF9CADoBahpA2/M1vrHZJwAYAwcfoIABFpBwJa+faBmA+DpK5Gd9tO/DSSd24qaMK0QnoZHD8A02PwLAQg0RuBsAgB6ASrawAGNWa3zjQkAnAEjHgIQSILAKyo6f08fiey0n/xNP3dKWioJC3bIhKcB0gPgoDBEQgAClQjY7m23EQTQC1DSBj5WydoyuYgAIBNFkU0IQKA2gWNKOn9P/4js9J/+bdzIE2pbXcICPI2QHoCEFU/WINBBAlsQANADUMIGvtz2OkIA0HYNUz4IQGCYwJ9KNACe/hHZ6fcA2CJSrU6eRkgPQKtNh8JBIEsCBxEA0AtQwAbOzdK6S2aaAKAkME6HAASyJrBOAefv6ReRnf6Tv+no2VlbecHMexojPQAFlcBpEGghgUUl7dRrbO2J2zbk2UHSkomU82aCAHoBxtjALxOxU/dsEAC4I+YGEOgcgRdJ+usIB3u3pM9IWr1hIiwKlMdTuGf7NE72zg3bZ7Tbj4NQ9zd6AKKpkRtBIBkCL5b08IjGf9ifPCjpJEkbNZTrkyfkbzivfO9WsPAXSfM3ZJfRb+tp3AQA0dXJDSHQKIGVJN1SsnH9vqTnR871N0vm0dNPIjutAGOvyLbY6O08jY8AoFHVcnMIRCfwqRoNq/mL10haIEKuL62RT0+fiexmg4E7JNnYlc4kT4MjAOiMGVEhb2jvAAAgAElEQVRQCGhZSfaOv65PsbEDb5e0mBPTxxV4RVG3DFxf3w6aYNi5NssTcudgOjksxEIgBwIHB2j8h/2RvUo4RJI12CHTUYHzOZxnvufZ8A/09q2QhpaDrEHBPT4JAHKwAPIIgfoErNvUa2pdqJkDC/V2dtuXxr92D41HW5GKTBsb0qnkCZ4AoFOmRGE7TGDvCA3rQ5Js9H7ZmQM2onu3WaYlevo/ZOfXG/C3BOqwBapm4zYeZvfebBlbuMoteRopAYCb2hAMgWQI2KC9qyIEAMO+6gcFZg7MJ+mVki6PnLfhfPI9vyDgSQ3VrI0l2SDaUbNoLpO0vke+PA2UAMBDY8iEQFoEXt1gA2uj+e0paStJT5b0REmvlXSsJJvP7enfkN1Ovq+PWL1WlvQeSX8oYKv3SbI1NoImTyMmAAiqKoRBIEkClxRwXp5+BtntbIib0qs9bc9xrGk2XsaC1O9KstdaZcp5naTHhMxbmZuXPZcAIKSmkAWB9Ag8r6QDK+tDOL9cAwGvMLxeFbiq2euorSUdJ8nWGqijpw+EzFudjEy6lgAgpKaQBYH0CHyvpjOb5EP4vV5jAb9q/GzcSIjlgO21lE1lDTlG5tqQPRSeBkIAkJ7DJkcQCEVgQxr/Wk9ynr4X2dUa/mFuu1SsKLbj5R6SfuxYP7atmLcZlw0XOPR3AoAZuDkAgdYQ+Lqjgwvti5BXv0HsGsM/S5pbsLZab8ELJFmduCdCvTihYL4mnuapVAKAifg5AQJZErCpUrajn6f/QDZ8m7YBa8PWG1ND7bcjJF0fuS7c1bvv4mPyVfgnT8AEAIXVwIkQyIrApyM7PE8/hWwCjUk2YGMCPt9v7A/rBQW2YmDsRn96HncN4TGmCw35PwFACA0hAwJpEbC1+UNs+hPS1yCLRrxrNmCLYdVOntAIAGqrBwEQSI5A6E1/PH0QsgkM2moDD0tata538IRDAFBXO1wPgbQIeG764+mLkE0g0EYbeF9d9+AJhQCgrna4HgJpEYix6Y+nT0I2gUCbbOCKuu7BEwYBQF3tcD0E0iFgm/78lcF/zHzABpKygU3ruAgCgDr0uBYC3SHQ5KY/nn6qLbLtnfCV/S2TbWraO3ubzOwsaUtJq0taapa/VSTZTnQ79BewOag/4v0nkv5FY59UYz/KVj9XxwWNEhjqGD0AdTTDtRBIiwCb/qTVfX5DfzraAb1V52xluKUdzMUWuLH96G1vegsqfibJAo1QbQRy6rO8tcSCRTNMxFMBBAAzcHMAAlkSYNOf+o46hK+1d742D926fW2DmSbScpJ2k/R/ATa2CcEEGdLLqxqCJzwCgKpa4ToIpEWATX+aCwD+KOm/e13766ZlEv/OzUL9JXBPZWXIRntFzqpqGwQAVclxHQS6QYBNf+I3/tbNfrak5zf4pF/Wulfu5dXWiPgbrwiiBwMPSFq+rMLsfAKAKtS4BgLdIXCSs5/w9EG5yb699y7/E5LWyNi8bLbITpIuxW5c29fptr1PFZuZLiTk/7m/AnivJBtow1+7GZieSaMJsOmP70PSwN/eK+lIp4F8ozXrf9TGKNgsBHuFMSgnn34sbJBu6eSpkNwDgEMx3E5UXNMzaTQBNv3xc9jme62r/2uSVhuNvxVHbSbBLpL+gj9196fjdi4caUwEACOx/PsgAYCv8/O0vTKyCQBG1wE2/fG1//MlbTQafSuPzpX0YUn2vrpM/eTc4rysF6lU8oRLD0BxxXnqAdnj9UAAMNplsOnPeLupWq/ukfT2jAb3jbaO6kc36C069CuCAJcgyF5XW49L4VTViItcRwDg40CKsOec4uwJAGa6i8Uk3YKTDu6kreFLcTrfTAvwPWIDBW0BIwuG8FVhGbywjOo84RMAhFWsp666LJsAYKbHeBuOOWjD9FC/+3vBmag7feTpjA0Iamfmx23WTuHk6fgJAAgAPO0rlGwCgKnugk1/wtbb2yQ9dypi/hsi8NjeyobfJuAMFghYr4rt+1AohXKio+QQAIR1JKMYc6w+YwKAqa6CTX/q29SgXtrId1tLnzSewBxJVg8H3Pisx2KP8bjn/eoJmgCgnhI9dYPsebohAJjnD+yb1Vvsoz6DCyXZTApScQKvkGRrImB/9RiY7RVKnqAJAOop0VM3yJ6nGwKAea7Clp7FNuozsLn9Nu2NVJ6A2eDd2GHtevjkIug9KzsBQH1H4qkfZD+iHwKAeZ7i+zje2o73y5KsS5tUncA2ku7EFmvZ4iFF8Hs2AgQABACe9hVKNgHAI56CTX/q19eTy87DLuKkO3qObXlsAyhD1fOuybmqyFoTnlAIADBeT/sKJZsA4JEWhk1/6tXX0yTZDApSOAIWlNITUN0ut56kilBOdJQcAoDqihvFk2M+PAkAJDb9qWdb5/Tm+S80ydnyeyUCO0iydRTwf+UZHDeJuCdUAoDyCvPUB7JH64MAQGLTn9G2UaTO/E7S4pMcLb/XIrAfAUClAOgOSYuOI1/EwKueQwBQ3alUZc515Zl3PQBg05/yNjOoZ/aOes1xDpbfghH4AkFApSDgNeM0MDBkj08CgOqOxUMfyBytj64HADZaGNsoz8C28t1+nHPlt6AEbBnl87DV0nX1O+O04Fnxcw8APtBflMIWpuCvvQxMz11NbPpTvuEf+Mz3d9VoGiz3imxSVToAsPETK82ms4Exe3zmHgDMxozjEGgLATb9qRYA/KDIFKu2GEli5bDVAj3aqzbLfPdsOvQsNAHAbNQ5DoHmCbDpT7WGxFapW7159XU6B18hCCgVBP1+NmshAJiNDMch0G4CNjjIs/63Vfb+7TaLLEq3pKRrsN9S9feZozTrWUnpARhFnGMQSIOA1U/P+t9G2Rez0l8axitpW+y3VP09epTmPCspAcAo4hyDQPMEtsJ5lnKe5icfkLRB86ojB0METseOC9vxzaMWqyIAGLImvkKgIwRsBLtn3W+j7M91xDZyKuba/cCsjfbmUaYdpyvX4yYDmfQATKfN/xBIg4AtXTuop3xOZnHPuKlUaai0s7lgFcvJ9juo46dOt5LBDx6fBADTafM/BNIgwCjq4k7TfONH01AbuRhBwFayvJ2AtlBAf7+kZYcZejT8A5kEAMOk+Q6BdAjYvOBBPeVzPAtrXJZJR3XkZASB92HPhevz3sP8PCs/AcAwab5DIB0Cy0u6FadZyGn+TzpqIyezEHisJFufwbM9a4vsXwwz9CwUAcAwab5DIC0Cb8JhTmww7N2/NS6k9Akciz1PtOdBe7/uQJ2DAx6fBAADynxCIE0CO/P+dKzT/HKaaiNXIwisRwAw1paH2/jDBvyGD4b+TgAwoMwnBNIlsErvKfeTkv6FA53hQDdPV23kbASB87HhGTY8ql2/TtIc4zfqx1DHCABGWCiHIJAoARvoZu+7b3L2C6H8i7ecyxLVE9mancBO2G7hNv15htGzEhEAzG6o/AKBVAksIuktkv7s7B88fU8I2VNGS6eqLPI1hYBtcHVLx+22qO0fZ+SKnlzlPAKAKbbJPxDIisD8kmzr1V86+4kqvsX7GttDfcp86aw01+3MfqmD9lqlPli9JgDodl2h9BAoRODZks519hdVnJjXNRcWosJJKRKw5W697KJNcm19C1dQ9ACkWD3IEwSqE1hfkq0iaBvjtMkZTi/LAdURcWXDBBZlTYBCdfP3pqfphh/yfwKAhmsCt4eAEwGbOXCUpLucfUhIf1RG1tOcuCE2DgF2CZzctn/WVFGmUpQ9lwAgjrFzFwg0RWBpSbYM6z+cfUlZ31Pn/Kubgsl9gxHYrUX2WMeWZ7vWAvc1jfZsJ4Q4TgAQzJ4RBIGkCSws6c2SrnT2KSH80iQZn0+aNJkrQuDJLbDDSXZa9feHJe0ygFhVSJHrCAAGlPmEQDcI2OIiL5P084wd8Bu6oapWl3I+9roY+XB/qaRNhzVfpCGveg4BwDBpvkOgOwTMAVtD+s8MA4ENuqOmVpf0+xnaXtW2dtx1tknS1yRtJ8mm9k5J4y6s+xsBwBTU/AOBzhFYUdLlGTnieyUt2DkttbPAh2dkd3Xb2unXWze/LYtsQfgS49Q7/cKQ/xMAjCPPbxDoBgELAnJZVXDKVqndUE9rS2mLWIVsz3KQdYWkAyWtVlSrnoUiACiqBc6DQLsJbJ2JM2YAYHvscI1MbK5uG2yv2WxK35R3+0XVWPfm464nACiqBc6DQPsJnJqBQ963/WroTAnnZmBv49rPcb/dL+kMSbb5kZWzchp3k7q/EQBUVgsXQqB1BN6ZgUN+Teuod7tAN2dgc2XaWVu//22SHhdKrWVuXvZcAoBQWkIOBPInYAOSyvqQ2Oc/J3/MlGCIwG8ysLlJNn6dpEMlrTtUrmBfJ928zu8EAMHUhCAIZE/glAyc8VOyp0wBhgmck4HNjWpjbaW+L0t6riRbW8Mtjbp5qGMEAG5qQzAEsiJg7ynvzMAZL5MVVTI7icAXM7C54fbW6sghk6buTSp0md+Hbx76OwFAGU1wLgTaS+BFGThi2+HQFjAitYfAYRnY3aDd/YmkFWKjH9zc45MAILY2uR8E0iRwTAaO2BYBIrWLgL0792jbQss8U9IiTaAPXZBheQQATWiUe0IgLQL2DvOGDBwxAUBadhMiNzkEAFdJekyIwlaRMdxgh/5OAFBFI1wDgXYR2DODxt98HwFAu+zOSpNDALBDk9hDN/rD8ggAmtQs94ZA8wRsvnIuGwIRADRvL6FzkHoAcF9TXf8D0MMNdujvBAADynxCoJsETsjk6d98HwFA+2w09QDglqYHnoZu9IflEQC0r0JRIggUIbCQpOMyavzNbz3YtDMuApZzShE4OgMbfGqpEgU+ebjBDv2dACCwshAHgQwIbNZbwOTCDBzvKH+3XAZ8yWJxAjksPvXW4sUJf+aoShDqGAFAeH0hEQIpEniipP+RdGWmDf/A522QIlzyVJnABRnY48mVSxfgwoHhe3wSAARQECIgkCiBJSTZ+v7n9xr/hzNwtEV8nC1YRGoPgRwCUpsi21gqUimqnkMA0JhauTEEXAjML2k7SSdKursljf6wf9vDhRpCmyJga+oP6zfV7y4b/RSB7gmEAKCIBjgHAukTWE/SEZKuz8ShVvVrB6evCnJYkIAtrlPVDmJf97mCZQp+mmdBCQCCqwuBEIhGYHlJ+0i6JCNHWteffS0aXW7kTWDTjOzW1gNYxRvIKPl1K8y46wkARhHnGATSJbCwpFdIOluSbY4zrn638bfL01UNOStJ4C2Z2a/tlxE9eVZiAoDo6uSGEKhEYAtJ5oBuy8xphvZfNpjRBjeS8idwbIa2fEBs7KEr0LA8AoDY2uR+EChOwN6RHijpTxk6ymE/E/r7NsURcmbCBC7O1K5t9cK5sbiGrjzD8ggAYmmR+0CgHAHbgOS6TB3ksI/x+L5fOZScnSCBBftLO3vYRwyZNtjWegOW8mbrWRgCAG/tIR8C5Qk8q6Pv94v6uq+XR8oViREwGy+q75TPu6O3VfCRklb24utZeAIAL60hFwLVCCxAl//EhuEmSbbeASlfAh9qSQAwaJ/vl3S8pKeEVsngBh6fBAChtYU8CNQjsEnLHKOH3zKZW9fDzNUNE/hNS+3cBqmeJWmrUHy9KpDJJQAIpSXkQCAMgX1b6hhD+7GPh8GNlAYIrNYRG/+ppP+UNKcO49AVZ1geAUAdzXAtBMIT2KsjznHYD1X5flV49EiMRGDvjtm4rV2xe9WZA1UqR9FrCAAiWTy3gUBBAs/rmHMs6qtGnbd+QaaclhaB73fUxm1TodIzB0YZfqhjBABpVQxyAwGbVnRvRx1kWb/2AcwlOwJPatHOlGXtdXB+qZkDg4s8PgkAsqs/ZLgDBE4hAJg4E8D8oc3FtvnkpHwI2CI6Hm1ZjjJt5sCXJD11nPo8C0YAMI48v0GgGQLb4yQLNxKvbkZF3LUCAQvW/oFtz7BtmzlwpqRVRzElABhFhWMQaC8BWwvgRhzlDEc5yhf+pL1m0LqS2SZWo3TIsUe43NqbmffS6Vr3hEMPwHTa/A+BNAgchbMs3FhslIbKyMUEAj/Epifa9D2SVh/mSAAwTIPvEOgGgWfgLCc6y4FvtPeopLQJ2G6WA33xOZ7F6cOq9IRFD8Awab5DIC0Cl+E0CzUaNpjqyWmpjtxMI3A+tlzIlq29/5ek+Qb8CAAGJGZ+bts79H7+Ws/A9NzFtD9Os7DT/EYXDSSTMj8fOy5sx4P2fpWBbgcHPD5z7wFgSsn4riQPm2lCpum5i2lFSQ/hPAs7z827aCQZlPmX2HBhGzb/anX+0W2GPR0uAUA3GlBPG4ohu6sBgPn2b+M8CztPW3udlBaBnbDfwvY78KWXDqtwcNDjkwCAAMDDrkLL7HIAYPPcQ/Nss7ydh50n3xslsISka7Hf0vX3kGGteVZWAgCcq6d9hZLd5QBgUUm2dGgolm2Xc81w9+mwI+V7dAKfwW5L11ubBrjcsKY8KywBAI7V075Cye5yAGC+4DgcaSlH+pVhB8r3RghsyZr/pWx24Cs/O11bgx88PgkACAA87Cq0zK4HANsQAJR2prbqHKkZAgtLsi1wQ/uBtsuzwX8zprN6FpoAACP1tK9QsrseANic4L/iUEs1KLdIslkUpPgEPoatlrLVgZ/8v1GqGvzo8UkAQADgYVehZXY9ADC/YFvfhubadnk2g+LRBVVGOVeOBSfAev/V6+nGo7ThWUkJAKory1MvyJ6qFwIAaQ0CgEoB0IdHOVWOuRB4mqS7sNNKdmorJY5Mno0BAcDUhsaTNbKrsyYAeMQ12M532FF5BruO9KwcDEnAFq75E/ZZuX6+aDZleFZ4AoDyzsRTH8gerQ8CgEe8w5txsJUc7H2Stp7NwXK8NoE5kr6FbVayTfP5tufHrK+qPBsFAoDRDY4nc2SXZ04A8IiPXlrSvTjaSo7WBgXaaxRSWALWcP0vNlnJJgdtwdgeqsFJHp8EAOUbIw89IHO8HggA5jltGymMvVRj8OfemgqPbrIyDynfahBgsZ9qtjiow9dJWnAc/8GJHp8EAPWU56ETZM7UCQHAPA+xPQFArQDIplM+aR5OvtUgcCS2WMsWzdfvN4m/Z4NAADCzsfHkjexqvAkA5nkJe1q4Ecdby/HaU9ea85DyrQKBD2KDtWzQ2oLbJNl+CWOTZ6NBAFCtQfLUCbJn6oQAYKqL+ATOt7bzvV7SU6Zi5b8CBBborVVPt/9MH1XFbx9WgHdtQx+XMQKAMIocx5jf6jMmAJjqKTYkAAjiF2+WtO1UtPw3hsCSbE8dxO6sTbCZKYVWqvRsQHIPAMwR2ghK/trNwPRMmkrApg55+oauyH5Q0v5T0fLfCAKrSfodNhesztkGX4WSZ0XMPQAoBJCTINBCAu/CGQdzxuZjT5K0WAvtJESRbA0Fxp2EC7gf7tnbOkUVQwBQlBTnQaA7BFaSZLuHefqHrsn+bRnH3AFTmyvpcOwseB07o4zteFZCegDKaIJzIZAWge8QAAR3zrbQ0nsl2WC3Lqf1Jf0G+wpuX9aeb1nGsAgAytDiXAh0h8BrcNAuDtp8rj0cdXHsyfy91Sbf0x+k5tn2dFW27edRKnmCogeglCo4GQJJEVhU0h0EAW5BgA0QtKlaiyeldb/M2CJTv8ee3OzJ2vIdy6qPAKAsMc6HQHcIsA67/zgIGwC3jyR7J97G9ExJ59Hwuzb81o5fLsk2TiqVCABK4eJkCHSKwDY4bnfHPfDB10h6Y4vGB6wt6URJNip9UEY+/VjsUcUzeSqEVwBVNMI1EEiHgO3GdjUOPGoDdoWkvSUtlY4ZFM6J2csLJJ1Dwx/VZm6QtHBhLQ2dSAAwBIOvEIDADAKsy+731DbO/97d3wp3kxkaSe+AjWPYq98NPa5M/OZjSzazpFLyVAg9AJVUwkUQSIqAbWzj6SeQPZmv+dJ3J7a/wNKSXtvL0ymS7sRGGqsjxt50USl5Vj4CgEoq4SIIJEfAphd5+gpkF+d7laSjJW0XeeCgde+v1dtl7h2SftBbz+ABbCKJOvHxOt7Cs+IRANTRDNdCIB0Ce+Lsk3D20/31/ZIukfTFfhf85gGnFT6ht1jPf/aCjI9I+p6kW7GB5GzAgrBV6riJ6QYV8n8CgDqa4VoIpEPgsSzekpzzn81X26h7GxT2K0lnSTpW0sGS3irJArm39IMFG2j4tv6rhaP6+xX8SNKVku6isc9C31+p6yJmM6IQxwkA6mqH6yGQDoFv0Chk0SiE8N3IKP5KpklWtqRyreSZeQKAWqrhYggkRWAHAgACAGwgGRs4N4R3IAAIQREZEGg/gQV73cg30QAk0wB4+m5kp98D8JwQLsdT0fQAhNAQMiCQDoFPEgAQAGADjdvAxaFcAgFAKJLIgUD7CdgOdp4+A9nwxQYm28DOoVyNJ2x6AEJpCTkQSIfA7xoKAu6RdHpv0Zl9Jdl0NwtGbJU8Wz/fFqNhXvrkhsPT3yM7Dv+/SLJtlYMkT6URAARREUIgkBQBW5HO029Ml31Bv5FfcgKFjSXZIjnTr+d/mLTJBmzJ5WDJEwwBQDA1IQgCyRBYSdJDzg3tn3vyD5L0pJKlfq5zvjz9JbIJVCbZwM2SFi1ZJ8aePumGdX4nABiLnh8hkC2B7zg0tLdJOqa36twWNanYYjZ1/BbXwi9VG7AFnYImz4ISAARVFcIgkAwB2wQmhO+w9/ZnS7JBTZW2Mx1BZOtAeQtRPmSEsRM4SrY75ONG2HutQ55gCQBqqYaLIZAsAeuGvK5GQ2u+YR9JyzuV0Nau9/RtyIZvbBv4tEdd8SwEAYCHxpAJgTQIvKxkI3t9b6OaIyStFyH7m5bMm6cfRHaewcIVkr7d2xDpN5JuadieHpS0uke98TROAgAPjSETAukQ+OCEAYHWbXmipBeEnLpUsPg2kNDTvyG7XXxtEyXb78JeRz1+hI1t1d9cyc6LrfuTR+QnyCHPghAABFERQiCQNAFbktSelO7sO0YbqWxd8G+QtESDOT+uAUft6U+R7dfw2voSTy9oq0+RdLwk24o5lk42Kpi30qd5FoAAoLQ6uAAC2RKwxUmWTij3u0Z00J5+FNl+De23ek/1VRvXlfuvtO5wtrMfetYpT+MiAPDUHLIhAIFxBBgH4NdwerYbsWS/fZzxlPhtKUkHSLIxLh55t9dnbskjwwOZBABuakMwBCAwgcBLnBzywL/x6dPgxeB63gTbqfLzXEm7S7o8oN3ZAETX5AmbAMBVdQiHAATGEHhLQEfs6SeRHT+QeNMYu6n70xxJO0r6SQD7e13dzEy63tP4CAAm0ed3CEDAi8CpARywp39EdvyGf8B8DS+jmyZ3y96mVWdKqjJz4BpJC06TF/zfARCPTwKA4OpCIAQgUIDAWhWdrocfRGZzDf1s7FcoYEMhTyk7c8D22tg2ZAZmkzUboBDHCQBmo85xCEDAk8AXePp3GZAWol1IQUbsAGBg67aRli2GNW7mgPUW2KDCKMlTGQQAUVTITSAAgSECtojLvQQABABjbMBmiDSZbObAeyRdMrSQlu2L8WNJm8TMGAFATNrcCwIQ8CZw6BjH7+nvkJ1eV/9sOtnX2whLyLfFstaRtFCJa4KdOhugEMfpAQimJgRBAAIFCJgztW2FQ/gvZLSX47kFbKkTp3gaOQFAJ0yIQkIgGQL70/gT/BSwAdtcZ9R6/8kYcqyMEADEIs19IAABTwLWhfq3As7f0+chO59eg/08jTEX2Z4GSw9ALlZAPiGQP4HdaPx5+i9hA+6r7OVQpQgActASeYQABMYRmE/S70s4f0+/h+x8egGK7gA4zvay/s3TWOkByNo0yDwEsiGwA40/T/8VbOBj2Vi4U0YJAJzAIhYCEIhGwOZPe/oyZLeT7w2SFohmpQneyNOw6QFIUOFkCQItI7A5jT/BTw0beFHL6kOp4hAAlMLFyRCAQGIETq/h/D39H7Lz6DU4KTF7jpodTyOlByCqKrkZBDpHwFZQq7LTmqffQ3YeDf9AT/dIsqV5O5kGEDw+CQA6aVIUGgLRCHyRp3+6/wPYwB7RLDaxG3k0/AOZBACJKZvsQKBFBFbs7Zp2XwDnP/BXfOb15B5SXzaItJMpJMTpsggAOmlSFBoCUQgcTuPP039AG1g9itUmdpPpjXbI/wkAElM22YFASwgsKen2gM4/pN9DVp49Ce9vSd0oVQxPYyUAKKUKToYABAoSeDeNP0//gW3gL5JsRclOJQKATqmbwkIgewK26c/fAzt/Tz+I7Hx6BLbMvnaULICncdIDUFIZnA4BCEwk8EIa/0JP/3dKuh5WhVgN2sFjJ1pfy04YFNzjkwCgZcZCcSCQAIEP06iNbdS+LWlDSXP6XdrPlPQRSX+E21hu1gbeJmnhBGw8WhY8Gv6BTAKAaGrkRhDoDIGTachGNmQPSXrjBCtYV9KBkm6F4UiG1na9cgLDVv08aKw9PgkAWmUqFAYCSRD4II3XjMbLVkN8bQntLCfpBDjO4Gjt4LdKcMz+VI+GfyCTACB786AAEEiOwPY0XDMarmMqaukFLKY0g+WDklaoyDO7ywaNtccnAUB25kCGIZAFgfMIAh5tuG6UtHQNrdlrAw//n7PMd9bgmdWlnkoiAMjKFMgsBLIhsJakq2m4/t1wvyuA1r4EyylB0LkBmGYhggAgCzWRSQhAYBoBe+r9RscbLlsNcYlpXKr8u3HHOU5vB21RoE6k6QUP+X/uPQCL998F2fsg/mAQ0wY64XwCFdKmvNme7vbuNqT/ykGW7YcQKv2hg/xm07EFVp1IswEIcTz3AOBQKkTnHGoIuw8hoxPOJ3AhnyTp05Lu7ki9tZ0QbUfEUOk9HeFWpH7aWgqdSEVgVD2HAKB7TyRVbYXrptpKJ5yPUyEf11sA52BJN7e8QTsuML+Ve2sE2FoC1EVpr8BskxXnqWwCACqTp321WXayDiOjjJMRv/wAAA8bSURBVC0qaW9JV7WwUbN5/7aoT+j03RayKusnfixp/tBgU5VXFk6Z8wkACADK2AvnzrOXVP1FjvkyZ/4qSZe0qHE7w0kRtphQl+vhRZKe4MQ2SbGeyiYA6HZl8rSttstO0lm0IFPPldSGp9wtnHRhvSZ3dDAIsH0Sdmc74LANFgFAWJ5tb/Qo3zx7cfLviO0TeIakEzOdOWBPqZ7JxhZ0oS7e0h80uoknzNRleyqaAKAbFcnThroqO3W/0Zb8PVHS0ZL+lVGjt6Mz/G0yYlHWP9wv6TRJxnAhZ45ZiC8LsMz5BAAEAGXshXPn2UsWzqNFmVy21+gdJOmmxBu/y/vb/Hqin6+FAyd/3psVYiP7Tc+kIQKeTpcAYJ5D9+SM7PZxHqqifI1IwN6Bv1WSrQSXYr2y99Qx0iGJlr+MTq6V9JHeIlHrxACW6z3KAC17LgFAmk6krB45P74ec/Unbcm3zRzYWdLFCTWE1/catLmRAD85oXKX8T939bc53jZCT0kkVfjepgzcsucSAMRvOMrqiPPT1JFvrUd6GQLPkWQrwzVdVw4ok+kA516YQJmLMLfFi77f67V5nSRbvp1UgkARwFXPIQBo3mlU1R3XNau7ElWYUyMReLqkr0p6oIGG0abmLRWpnIPb7NFAOcv4Hdu7wIKiTs3bHygn1GcZ4GXPJQBothEpqy/OT0dfoeo3csITWE3SJyRZd3OsOnNk+GJMlLikpHsilrEIS1ve+VOSbPdCUgACRaBXPYcAIJ6DqKojrktTRwGqNiKcCTy2t3b+gZJudG4kbeqardPfRPq6c9mK+B8r/6lM3fNRfxEFVD2HACDNxqWqPrkunj59ajtSPQgsImlPSX9yaiy/5JHpgjJf6FSmIr7Epu7ZjIxlCuaV0yoQKKKIqucQAMRrMKrqiOvS1FGFqswlDROwmQMvl/SLwI3mUxssl5XJZh/E8hPX9Bbo+bCktRssc6du7alYAoB4FcdTj8iOr8dOOaEWFvbZks4N0HCenQCbIwKUY5wPsbEU1sthsy3mJFDeTmVhnGLq/pZ7AGCjYM/jDwYN2ECnnFCLC7uepK/UmDmwdQJsnuYQANjUve/1p+4tlkAZO5uFuo38uOtzDwA6axQUHAIQCEpgld40vqNKzhz4ctAc1BMWaivl30t6T4ODGutRaOHV4xrwur8RALTQYCgSBCBQmcDSvR0I39cbNPiPCU/Vtj3tYyrfJfyFtshO1fbApu7ZhkvPDJ8tJNYlUFWpRa4jAKirHa6HAATaSGBhSW+WZD7y4aHG1ebdf0iSzSxILdnr0CJ+3865T9I3e+V7aa88C6ZWEPIzj8DdJZRaVPmD82znKhIEIAABCMxOwFb4+4/+yPcFZj+t8V/sNcbPJrQX9jtT9xpXVfEM3DBBoYPGvMqnTR8hQQACEIBAOwjY07y9w79Iki3Qc5skm69vvRZrtaOI3SrFlY4BgE3vIEEAAhCAQPsI0LXfAp3+yjEAsF4D5nW2wEgoAgQgAAEItI/A+c4BwBLtQ0aJIAABCEAAAvkTOMs5AGhqE4v8NUMJIAABCEAAAo4ETnQOADZ3zDuiIQABCEAAAhCoSODzzgHA6yvmi8sgAAEIQAACEHAkYNM3qkzxK3rNYY55RzQEIAABCEAAAhUJ7OIcAJxWMV9cBgEIQAACEICAI4FNnQMAW9OaBAEIQAACEIBAYgQe6xwA2GpRLBiRmNLJDgQgAAEIQMAI3OQcBDATADuDAAQgAAEIJEjgQucA4MAEy0yWIAABCEAAAp0ncJxzAPCDzhMGAAQgAAEIQCBBAu92DgDulWT7X5MgAAEIQAACEEiIwA7OAYCtGfDshMpLViAAAQhAAAIQkGQzAR5yDgIOhTQEIAABCEAAAukRuNg5ALhG0nzpFZscQQACEIAABLpN4KPOAQCvAbptX5QeAhCAAAQSJfCCCAHA8YmWnWxBAAIQgAAEOktgcUm2al/RTX6qnHenpMU6S5iCQwACEIAABBIl8GPnAMCChtcmWnayBQEIQCA2gc0kvVHSqrFvzP0gMJ3AIRECABtsSIIABCAAAekXQz73CkmflvRSSUsCBwKxCWwxZIxVuviLXmPjDUgQgAAEukzgxWP87YOSfiLJHsq2ZEO1LptJvLLbNL2/jjHKog38pPNs7wESBCAAgS4TGH76n+QzbfzUmZL2k7StpGW7DI6y+xH4QIQAwIydlQH9dIhkCEAgbQLjnv4nBQOD36+TdFavd+BDkl4uaQ3WWklb6Tnkbs1IAQAbBOVgDeQRAhDwIFDm6X/Q4Bf5tJ4C62H9jKTXeWQcme0nYO+eihhb3XOe336UlBACEIDAFAIhnv6L+N5jptyVfyBQkMCekQIAG/U6t2CeOA0CEIBAGwh4Pf0PBwUPS1q7DbAoQ3wCtjnQfZGCgPfFLx53hAAEINAIgddE8qs2YJAEgcoEvhHJUO+WtFrlXHIhBCAAgTwIrCLptkh+dZs8kJDLVAnYVJPhLiXP72ekCoF8QQACEAhAYI6k8yL5VBZbC6AwREg/jWSwFlzsAnAIQAACLSXwroi+9NUtZUixIhPYPqLR/kvSupHLx+0gAAEIeBPYIOKYqmskLeBdIOR3h8AlEYOAyyQt2h20lBQCEGg5gUUk/T6iD9235TwpXmQCO0U0XnsVcFzk8nE7CEAAAl4Ejo7oP2+XtIRXQZDbTQI2eCVmBGtBwG7dRE2pIQCBFhHYOWLjb37zyBaxoygJEXhtZEO+X9J2CZWfrEAAAhAoQ8B2PDU/Zg1zjL8Her2nNs2QBIHgBOaX9IdIhjyoLHdJ2iR4SRAIAQhAwJeAbd9r65sMfFmMT5b99dVp56U/J7JBW6W5WdI6nScPAAhAIBcCNuI/1mI/g8DieklL5QKIfOZL4OsNBAE2reUJ+SIj5xCAQEcIrCXpxgZ85Ms6wpdiNkxgJUm23eQg8oz1eTUbWzSseW4PAQiMI2Dv369twDeeOi5T/AaB0ARsnmmshn/4PvY64FmhC4M8CEAAAjUJWONvO5sO+6sY3+1Vw4o1887lEChFwFaZ+m0Dxm4VylYLfFGp3HIyBCAAAT8C/9FQt7/5wzf5FQvJEJidwFYNBQBm9Dbd5Q2zZ41fIAABCEQhYL2hDzbkC8+XNF+UUnITCIwgYNNOYnRzzXaPL0qyZTZJEIAABGISsOXKT2zQ/93bu78NOCRBoDEC1vg29SpgEBT8horQmP65MQS6SGB1SeZ3Bj6oic//7iJ4ypwegbUl2YI9TVSCwT1tVgLbX6ZnG+QIAm0jYKv7/bNhf3eppAXbBpby5EvgvxquEINAwNYoeHy+GMk5BCCQKAEbaX+CpIcb9nU23uCZiTIiWx0mYDv4DRriJj9tN6y3S7Kli0kQgAAE6hCYK+mAhtY+GeVH31KnMFwLAS8CNijmskSCAKs4l7BmgJeqkQuBThDYUdKfE/Jph3WCOoXMlsC6CYwHGI6arbvuZElPz5YoGYcABGITeKqk7yXU8JtPsxkHTPmLbQncrzSB50XeAnO4wR/3/WxJm5UuDRdAAAJdIbCxpP9tcF7/bP7L5vvbqwgSBLIgYCPymx4sM1tlOk/SDoyizcKOyCQEvAks2VvFz96r/zqxJ/6B//q9pKW9ISAfAqEJ2EC8gRGn+Gk7dn1S0kahC448CEAgeQK2p4gNXLalxVP0T5Yn2+J31eRJkkEIzELgwwlXruFKb1G2LazxDElzZikLhyEAgXwJ2Kwgq9/vTGARn2HfM9t3W9vE8kuCQNYEvpBJEDCoiLdI+qakt0paJ2vyZB4C3SVgs5Jsk54DJX271/DfkZEfsrn+L+yu6ih5mwhY5P2NjCrfIBAYfNoWxBdIskBmf0nbS1pT0kJtUhJlgUBmBKynbpl+XbTBvVYvd5N0pKSf9TcMG9Th3D53z0wXZBcCYwlYEGAb9+RWESfl1zbksLEENlfYBhFZoHAufzDABlxs4CJJl0uyXrqHWuhPbOC0PWSQINBKAh9qYaWdFCTwe/sCP3SKTkPbwN29hdR2aqXXp1AQGCKwd8JTBENXauTRUGAD2MAkG7DR/qzvP9RI8LXdBHbura99H70BrXslMsnR8TuNITYw1Qbs1eET2u3uKR0EZhJ4TmYjc3FcUx0XPOCBDdSzgTMlLT7TNXIEAt0gYHsH/I6eAHoCsAFsoGM28DHWHOlGI0cpxxOw+brHd6zy8+RU78kJfvDL1QYe6K3w96bxLpFfIdA9Arsmvixnrg6HfNNYYgNp2MBtkrbtnmunxBAoRuApkmxZXhwWDLABbKBNNnAxK4sWawQ4q9sEFpP0JYIAgiBsABtogQ3cLultkmwxNBIEIFCQwHaSrmyBA2jTUwxl4akcGyhuAydJenxBf8dpEIDANAIL9wKAgyTdQyDA0yA2gA1kYgP24PK8ab6MfyEAgYoEVpd0TiaVnyek4k9IsIJVm2zA9gY5WJI9uJAgAIHABF4m6VoCAZ4EsQFsIDEb+F5/Z8LALg9xEIDAMAFbN+DtBAI0AIk1AG16kqUsxXtmbB3/Vw07KL5DAAL+BBaS9EYGChIIEAhgAw3YwGW9rcDfwlK+/o6eO0BgHAGbXmMR+G8acAI8KRV/UoIVrHK3AVvF72RJW49zSPwGAQjEJzCfpB0kfUfSQwQDPBViA9hAIBv4e8+dvV/SivHdGneEAATKElipN3Xw3Ww0RAMQqAHI/cmV/FfrfTm/tzLpKyQtWNYBcT4EIJAGgQ0lfVLSTTQGBATYADYwwQbulPRZSU9Nw32RCwhAIAQBi+JfLOloegZoBCY0AjwxV3tizpWbLdxjDwm2+ihz+EN4W2RAIHECK/QHDx4r6c80CAQF2EBnbOCW/sJiNp14jcT9FNmDAAQiEFhV0i6SPirpzP70wgdpFDrTKOT69Eq+x/dW/FOSLdJzaK/n7+WSnhTBl3ALCECgBQRsrYF1Je0o6QBJx/efHC6Q9GtJf5J0g6S7JD1MsECwgA1EsQGb5WN17kZJV0uyOfm2VLi9u7fBv6+U9CxJ1stHggAEIOBOYI6kx/Sc0PJ9x2POhz8YYANhbMDq1VKS5rrXZG4AAQhAAAIQgAAEIAABCEAAAhCAAAQgAAEIQAACEIAABCAAAQhAAAIQgAAEIAABCEAAAhCAAAQgAIHUCfx/nwOAz07k7RIAAAAASUVORK5CYII=;" vertex="1" parent="1">
          <mxGeometry x="84.5" y="194.5" width="41" height="41" as="geometry" />
        </mxCell>
        <mxCell id="sp5y3ripQascYOn5C88f-59" value="" style="shape=image;verticalLabelPosition=bottom;labelBackgroundColor=default;verticalAlign=top;aspect=fixed;imageAspect=0;image=data:image/png,iVBORw0KGgoAAAANSUhEUgAAAgAAAAIACAYAAAD0eNT6AAAAAXNSR0IArs4c6QAAIABJREFUeAHt3Qe4JUWd/vEXhgwKSJQcJWMABBEURVFx8S8q7rouQWQxAgICiqsLKjhLEtQNrI/riogKiigmFtRVkqCrSxQFEYacszIwM/s/L/aVO8MNJ/Q5vwrffh6YmXvP6a761K+rqrurqyQ2BBDIWWAVSdtKepOkd0n6iKSTJH1J0ncl/VzSdZJ+L+lGSfc3/z0q6f+a//z3sZ/7M/6sv+Pveh/el/fpffsYPpaPuXLOcKQdAQQQQACB1AVWlbSLpEMlfa5plK+R9Ni4RnysMR/1n07D1U2aPivpEEmvluQ0syGAAAIIIIBAFwILS9pC0j6STpR0vqS7E2jk++1U3NXkwXlxnpw355ENAQQQQACBqgWWlrSDpCMknSvpvowb+247CY9IukjSTEm7SVq26ggg8wgggAACVQgsImlHScdKurzzTP3JChr86ToGNrhM0jFNZ8hGbAgggAACCGQv4IFye0g6rRloN12DWPvvPSDRd0P2l7RG9qVPBhBAAAEEqhJYqxmw56v8eVzl/+Vtg147N7bz3QEPLFyzqggiswgggAAC2QisLumg5vk2jf7Trxj22uhP9Xm/+eDxEqtlExUkFAEEEECgSIElJL1d0k8kzeVKv+8r/aka/Yl+Z+sfSfrbzmBClwEbAggggAACIxHYqBnFfg+N/sga/Yk6Av7ZA5JOlfT8kZQ8B0EAAQQQqE5gsc5Ment1Jrm5mEY/vNGfrDPg1wv37Lxl4bJiQwABBBBAYCCBZzfP9m+h4U+24V+wQ3Bnp8SPkvScgUqeLyOAAAIIVCmwbnOb/0Ea/mwa/gU7Ap50yI8HnldlBJNpBBBAAIGeBDaV9DVJc2j4s234F+wIuCzP6JTrxj1FAh9GAAEEEKhCYJ3mapGGfziv8C3YKEf8228PnMkdgSrOZzKJAAIITCvgSXt8m5hpectt+BfsbLisPTPj+tNGBx9AAAEEEChOwAPEPiNpNrf6i7nVv2BDP92/XfanMFiwuHObDCGAAAITCnixGc8zn/Myu9M1bPy+t7sZ9zdverAQ0YSnDD9EAAEE8hfYWdKVXPFXe8U/Xcfous4qjbvmH+bkAAEEEEBgTMCv9HmFuekaAH6PkWPgHElrjwUPfyKAAAII5CewcHO73++D07hj0EsMPNYsPDQjv7AnxQgggEDdAltI+jkNPx2fAWPgV5JeVPepRO4RQACBPAQWba7cGN3PFX8vV/xTffaJZlbIxfM4BUglAgggUJ+AV4S7esArvqkaAn5Xd6fiKklb1ndakWMEEEAgXYGFmte4Hqfx55b/kGPAMXaEJI8vYUMAAQQQCBRYRdL3hlzpc+Vf95X/ROV/vqTVAuOeQyOAAAJVC7xR0j00/lz1B8WAJ5PareozkMwjgAACIxbwq1kzJc0LqvgnuiLkZ3XeJXAMejphZhEccSXA4RBAoD6BFSX59isNLgYpxcB/S/LjKDYEEEAAgSEI+H3sP9D40/lJNAZukbTtEOKeXSKAAAJVC+wniVH+E1/1+zb0rZIubJa5PUbSwZL2kvR6SdtJ2lCSp0Revvlv6XHR5L+P/dyf8Wf9HX/X+/C+ju0sn/vl5hg+Fo9fJi6LP0nad5wtf0UAAQQQ6FPAr1udlOgV36hvQXsd+2slfV3Skc0ANDfWERPU+JjPa9LwkSZNv5E0h7J66g7N8bwq2OcZz9cQQAABSUt1Jl45u+IG5Q5J32yuwH1FvkQGUeE0Oq2HNGV3Z8Xld5akJTMoM5KIAAIIJCWwcoVz+T8gyY2GbyFvkFRpDJYY36V4p6RvSHqwsg7BJZJWGoyPbyOAAAL1CGzcefZ8YyUNhaeX9fP1HSt5lcyvy72s89jiUxVN23yDpI3qOX3JKQIIINCfwDaS7iu88fdz/KMkbdofUVHf2kzS0ZKuK7zM75W0dVElR2YQQACBFgV8FfxQoQ3BXZ0xDcexmMyU0eLFnE6Q5Bn2Rj3AchTH8+OPHaYU4JcIIIBAhQI7SXqksIp/bjNpkV+lYzBY90G9mKQ9GrvSXjd8TNIu3VPwSQQQQKBsgTcU9o7/w5I+3Xknf72yi20kuVtf0smFdQ49n4Vjng0BBBCoWuCtnXfanyjkyt8T5Hip2OWqLtHhZN4TFX1I0m2FxIpj3nc52BBAAIEqBXwVVELj71He+3RG8/vWNdtwBWzs1yRLeEvEsc+dgOHGC3tHAIEEBV7VuVr2tKmjGHw1rGPMknRQ0Ex8CRbpSJO0aDNN8e8zj6HZkl43UjkOhgACCAQKeLS/B0MNq2Ee9n49u937uOIPjKCnD+0piQ+Q5Lcshl3uw9r/o7wd8HSB8jcEEChX4IWdq2bPeDesynSY+/UtW6/9vmy5xZNtzrygkedWyHXBKL/+6jkw2BBAAIEiBTzDX66T/JxT2PS8RQZYs5LhdzLtYHqyIGYMLDUyyRcCFQt4bv8cB245zby3nV/g+rn6TRl2BDyglLUD8os3UowAApMIeBIcL4oyzNvzbe/bk/ic2pmZbplJ8sSP0xfwapIzM1yi+PJmJcz0hUkhAgggMIXAws2Stm030MPc35WSXjxFnvhVXgJentiLLg0zZtret1eF9LnDhgACCGQrcFJGFa+nnfUgP48sZytLwK8NepCg7+y03VgPa39eO4INAQQQyFJgv4wq21skvTJLZRLdi4Dnn8hpNsF39JI5PosAAgikIOBb6Lm8kuXbrc9JAY00jERghc6qjGdn0jn1ZFlbjUSFgyCAAAItCLiC/UMGFeyTzdz9LWSZXWQosH8mU1HfzJsBGUYXSUagQoEZks7LoPH3mvPc8q8wQBfIsmelvCODeL1Aks8tNgQQQCBZgeMzqEx/IWmtZAVJ2KgFVs/kNdVjRw3D8RBAAIFuBd4oySPphzUquo39fpk5/Lstzqo+5zc/zkg8dn1uvb6qUiGzCCCQhcBqnQVy7km8AvUrfgtloUkiIwQcG35VsI2O5rD24UdXq0bgcEwEEEBgIgFXnN9PuOL0YL93TZRwfobABAL7JD448Id0ZCcoNX6EAAIhAock3Ph7qdVXh6hw0JwFXpv4ktUH5oxL2hFAoAyBzTuv0vld5WHd8hxkvw9KemkZzOQiQGAHSV6md5AYHNZ3PcfGlgEmHBIBBBB4SsADp65OtIL00qpbU04IDCiwTcJLWHvNCqatHrCA+ToCCPQn8IlEG/87OwsQbdFflvgWAs8Q8JW2Y2pYV/OD7NeDFtkQQACBkQq4gX0iwUrxAUkvHKkEB6tBwPHuu0qDNNbD+O5sSZvVUADkEQEE0hDwMqWXJFgZ+nmtb9myITAMgRdIcgdzGA35IPv8ObMEDqO42ScCCEwkkOKo/8ckvWyixPIzBFoU2F7SIwl2Ag5oMY/sCgEEEJhQYF1JfrVukCuWtr/rRxG86jdhcfHDIQj4FcHUHn89zPTWQyhpdokAAvMJnJtY4+/pUT1xCxsCoxR4Z2LngTvVXuKYDQEEEBiKwM4JVnpHDyWn7BSB6QWOSfB82GX6ZPMJBBBAoDeBRSRdlViF91WmRO2tEPl0qwKeAvu0xM6JayT5XGVDAAEEWhPwIKO2n90Psr+LWdWvtbJlR/0LeCIej8IfJJbb/u67+88O30QAAQTmF1g+sXegPSmL13BnQyAFgedKuj2hTsB9klZIAYY0IIBA/gKfSahy8+jrHfMnJQeFCewkyatOtn013+/+TirMl+wggECAwNqSPNtYvxVR299jFbSAIOCQXQkcmtB54nN2na5SzYcQQACBSQS+kFCldtYkaeTHCKQg4EGB30rofDk1BRTSgAACeQpskNBtzVt5rplnEFWWao+XmZVIJ8CPy9arzJ/sIoBASwKnJ1KRzZXkOQjYEMhBwLNSOmbbfvzVz/6+mAMYaUQAgbQENpU0J5FK7J/SoiE1CEwrcGIi547P4Y2nTS0fQAABBMYJfC2RCuxK3vcfVyr8NRcBzw+QysRZvpPHhgACCHQl4AV/Urj6923Ul3SVYj6EQHoCL07kPPK5zFiA9OKDFCGQpEAq7/37NiobAjkLnJLInTTmBcg5ikg7AiMS8CjmFNY7v0nSMiPKM4dBYFgCS0u6MYFOgJcLXm5YmWS/CCBQhsCHE6isPNqZVc3KiCdyIe2ayDl1BIWBAAIITCawWCJzmnsyFTYEShL4bgKdgNsYUFtSSJEXBNoV2CuBSupxSZ6AiA2BkgSel8iU2nuWhEpeEECgPQEvsdvPZCNtfmdme9lhTwgkJZDC3AAXJiVCYhBAIAmBTRJo/O+StGwSGiQCgfYFni3pjgTOM0/yxYYAAgj8ReDkBCqm9/4lNfwFgTIFDkrgPOP12jJji1wh0JeAZy27J7hiulmS08GGQMkCS0i6Jfhcu5dzreQQI28I9Cbw9uAKyWMI9ustyXwagWwF3pPA+fbX2eqRcAQQaFXgJ8EV0g2SFm01R+wMgXQF/LrtH4LPuQvS5SFlCCAwKoHVE1i6dJ9RZZbjIJCIgO94tfn2TK/78voAz03EgmQggECQwAeCK6JbmZwkqOQ5bKSAx7vcHnzuHRAJwLERQCBe4NLgSujweAJSgECIwJHB5x5zAoQUOwdFIA2BNSXNC6yEWKAkjTggFTEC0Qtv+dxfKybrHBUBBKIFDgts/P3MkiVKoyOA40cLRC8XfHA0AMdHAIEYgcsDOwBzJa0Xk22OikAyAl73IvIu3M+TkSAhCCAwMgGPAI6seP5rZDnlQAikLfDjwI646wDeBkg7PkgdAq0L7BtY6fj2/x6t54gdIpCnwNuCz8W982Qj1Qgg0K/AWYGVjqcdZtrffkuO75Um4ImB7g48H79aGij5QQCByQUWkfRAYIVz3ORJ4zcIVCngAbG9TubT1ufvkzSjSnUyjUCFAjsGVjautLao0JwsIzCVwIuCz8mXTJU4focAAuUIHBtY2fymHEZygkCrAr8LPC+PbjUn7AwBBJIV+EVgRXNUsiokDIFYgU8GnpeeEZQNAQQKF1ha0pOBFc2mhfuSPQT6FfCjsbae6/e6nyckLdVvwvkeAgjkIfDKwErmqjyISCUCYQJ+RNZr493W518elmsOjAACIxH4aGAFc8xIcshBEMhXwG/ItNWg97ofL07EhgACBQv8MLCC2aFgV7KGQBsCrwg8P7/XRgbYBwIIpCmwsKQHgyoYH3fRNFlIFQLJCPgciTpHPTeI6wg2BBAoUCBykJFnHmRDAIHpBb4V1En3I4PNp08en0AAgRwF9gmsWLz2ABsCCEwvsH/gecq6ANOXD59AIEuByOlGWfo3y5Ah0QECGwV2AE4IyC+HRACBEQhcEFSx3DmCvHEIBEoRWEjSXUHn6nmlIJIPBBCYXyCqUvnG/MngXwggMI3AOUEdgDumSRe/RgCBDAVWC6pQPLDo4Ay9SDICkQKHBZ6vK0dmnGMjgED7ArsEVijbtp8d9ohA0QJena/XiXza+vzORcuSOQQqFDgkqELxugNLVOhNlhEYRMDz8s8JOmcPGiThfBcBBNIT+FxQZXJNehSkCIEsBK4LOmdPzkKHRCKAQNcCnuazrVuEveznq12nkA8igMB4gTODztlvj08Ef0cAgfwFfCXeS8Pd1mdZYCT/2CEHMQJRC3ddEZNdjooAAsMSeDSoA/BXw8oQ+0WgcIE3Bp2zDxfuSvYQqEpglaCKxHcRNqxKmswi0J7AJoHn7QrtZYM9IYBApIBfw2vrln4v+5krafHIjHNsBDIW8Nsz84LO3a0zdiPpCCAwTuDNQZXILePSwF8RQKB3gduDzt3de08q30AAgRQF3h1UiVyYIgZpQiAjgUuCzt2/z8iIpCKAwBQC/xBUiZw2RZr4FQIITC/wlaBz98PTJ41PIIBADgJRywAfkwMOaUQgYYFPBXUAWBY44aAgaQj0IuAr8V4G77X1WRYB6qWU+CwCzxT4YNC5+8VnJoWfIIBAjgLfD6pE9swRizQjkJDAPkHn7rkJGZAUBBAYQOCyoEpk1wHSzFcRQEDaLejc9eBDNgQQKEDg2qBKhGWACwgeshAqELUs8NWhuebgCCDQmsANQR0AZgFsrQjZUaUCGwWdu9dX6k22EShOwBPytDWwr5f9rFGcJBlCYLQCawWduzePNpscDQEEhiVwV1AlstKwMsR+EahEIGodjzsr8SWbCBQv8GBQB2DZ4mXJIALDFVg+6Ny9f7jZYu8IIDAqgT8GVSJLjiqDHAeBQgWWCjp3HyvUk2whUJ3AnKBKZEZ10mQYgXYFfA71Mu6mrc+6zmBDAIECBOgAFFCIZKFKAToAVRY7mUagPQEeAbRnyZ4QGKUAjwBGqc2xEChQgEGABRYqWapCgEGAVRQzmURgeAK8Bjg8W/aMwDAFVg0aA8BrgMMsVfaNwAgFmAhohNgcCoEWBZgIqEVMdoVAjQJMBVxjqZPnEgSYCriEUiQPCAQKsBhQID6HRmAAARYDGgCPryKAgPTzoOeIrwcfAQQGEnhD0Ll78UCp5ssIIJCMwPeCKpG9kxEgIQjkKbBv0Ln7nTy5SDUCCCwo8KWgSuSQBRPCvxFAoCeBw4LO3f/oKZV8GAEEkhU4KagSOTZZERKGQB4CM4PO3RPy4CGVCCAwncCRQZXIadMljN8jgMCUAmcEnbtHTJkqfokAAtkIvCuoErkwGyESikCaApcEnbv7pclBqhBAoFeBNwdVIrf2mlA+jwAC8wncHnTu7j5fKvgHAghkK7BtUCUyV9Li2aqRcARiBZaUNC/o3N06NuscHQEE2hJYOagS8drkz2srE+wHgcoENgk8b1eszJrsIlC0wKNBlYknMmFDAIHeBXwb3p3oUf/3cO9J5RsIIJCywDUBFYkrrn9IGYW0IZCwwD8GnbNXJGxC0hBAoA+B7wZVJl/vI618BQEEpG8EnbPngI8AAmUJfC6oMvFCRGwIINC7wO+CztlP955UvoEAAikLeFreUT9L9PHmSPJoZjYEEOheYKnm3Ik4Zw/sPpl8EgEEchDYJagD4ApsuxyASCMCCQlsH3i+vjIhB5KCAAItCKwaWKEc2kL62QUCNQkcHni+rlQTNHlFoBaBu4IqlbNrASafCLQk8O2gc/W2ltLPbhBAIDGB84MqFXc82BBAoDuBhSTdHXSu/rC7JPIpBBDITeDEoErF4wA2yA2L9CIQJBA5A+BxQXnmsAggMGSBvQM7AKwuNuTCZffFCLw78DzdqxhFMoIAAvMJbBFYsXhSEzYEEJhewBPxRLz+52NuPn3y+AQCCOQosLCk+4Mql4ckLZojGmlGYIQCi0nyXPwRHQDXDa4j2BBAoFCBHwRVLq7QdizUlGwh0JaA38GPaPx9TE8XzoYAAgULeHGeqArm2IJdyRoCbQgcH3h+friNDLAPBBBIV+AVgRXM1emykDIEkhC4LvD8fFkSAiQCAQSGJuA5xp8IrGQ2G1rO2DECeQu8IPC8nC3JdQMbAggULnB5YEVzdOG2ZA+BfgWOCTwvL+k30XwPAQTyEoisaHyLkw0BBJ4pcH1gB+CoZyaHnyCAQIkCOwRWNB6A+PwSUckTAgMIbB18TrJi5wCFx1cRyElgkcD5ANwBOCEnLNKKwAgETg7sANwracYI8sghEEAgEYEzgyucxRNxIBkIRAv4XLgn8Hw8IxqA4yOAwGgF3hFY4fguwFtHm12OhkCyAn8bfC4y/3+yoUHCEBiOwKqS5gVWPF6amA0BBKSfBJ6HrgOeSyEggEB9ApcFVzzr10dOjhGYT2DD4I74pfOlhn8ggEA1AocGdgD8GMADn9gQqFngs8Hn4EE145N3BGoWWDP46uNRSSvUXADkvWqB50h6JLADMFfS6lWXAJlHoHKBiwMrIN8F+FDl/mS/XoGPBp97P62XnpwjgIAFDgyuhO6UtARFgUBlAn71747gc+99lZmTXQQQWEBgNUm+Feir8aj/9l0gTfwTgdIF9g8833yez5HkN4HYEECgcoEfBVdGN0patPIyIPv1CPjq/6bgc47XcOuJN3KKwJQC0ROR+IrEV0RsCNQg4FvvUXfbxo7LRFw1RBp5RKALgeipSF0p3SZpyS7SykcQyFnA411uCe4AeO5/n/NsCCCAwFMCnw6ulNwJOICyQKBwgYMTOM9YjKvwICN7CPQqsHHwnADuANwladleE87nEchEYPngRX/Gbv9vmokXyUQAgREKRM8J4Arq+BHml0MhMEqByCV/xxr/C0eZYY6FAAL5COyZwO3J2ZI8PzobAiUJ+A7bEwmcX39XEip5QQCB9gT8Kl70ACVfqXynvSyxJwSSEPh+Ao3/rZIWS0KDRCCAQJICnpp37HZh5J+vS1KHRCHQu8BuiZxTh/eedL6BAAI1CSwXvEDJWKfjZknL1ARPXosUeJakWQl0AB7urL7pc5sNAQQQmFIghcFK7giwXPCUxcQvMxD4XAKNv88lXv3LIFhIIgIpCKwj6ckEKi6vUbB9CiCkAYE+BLZt5twfu6sV9acHH67VR/r5CgIIVCrw1QQ6AK4wr2LWskojMO9se6a9axI5h76cNyWpRwCBUQs8L5G7AO4EMDfAqEuf4w0qkMLMmj53vOrfRoNmhu8jgEB9AqclcgUzTxJvBdQXf7nmeJcEZtUce9zwhVwRSTcCCMQKrJ/I5CWuzLxY0IqxHBwdgWkFHKO3J9Jx9rP/9aZNMR9AAAEEJhH4fCKVmTsBZ0taaJJ08mMEogUcm57EauzqO/rPf40G4fgIIJC3gEcPP55QpXZo3pykvmCBVCbRcsfjT5LWLNiarCGAwIgETkmoA+DXE3caUb45DALdCuycyCt/Y3cdTuw24XwOAQQQmEoglWVMxyo3Lxu8xlQJ5ncIjFDAV9p3J9RJ9vnBrH8jDAAOhUDpAu9LqIJzR+BS5gcoPeSyyN8Ski5P7NzYPws5EokAAtkIzJB0ZWIV3dcZFJhN/JSYUA/6Oz2xc+LXknyusiGAAAKtCrwyscrOdwI+2WoO2RkC3QvMTPB8eHn3yeeTCCCAQG8C5yRY6b2ztyzwaQQGFvBt9rExKan8edbAuWIHCCCAwBQCayeyXPD4StcTnrx2ijTzKwTaFHh9QtNkj50HDzEwts0iZl8IIDCZwAcSvPr5oyRuf05WYvy8LYGXSno0wfh/b1sZZD8IIIDAVAILS7o4wUrQV0HbTJVwfofAAAIvlvRwgnHvN2J8TrIhgAACIxHYXNLsBCvDByS9cCQCHKQmgS0k3ZdgvPsc3LSmgiCvCCCQhsDHE6wQ/Uz0zs66AVumQUQqChB4viRPrjP2vD2lP/+xAF+ygAACGQosLumqRCtGX63xOCDDoEosydtKuj/RGL9C0mKJeZEcBBCoSGAzSR6Al9JV0VhaPFjLcxewIdCPwMskeVzJWDyl9KcX++EuVz+lyncQQKBVgRTfChirrB/jFcFWy7qWnflVv1Q7to7t99dSEOQTAQTSFvCUqN9N9ErJlaVXEHxP2oSkLiGBfSV5bomxTmRqf/6AKbATihaSggACWrkZfJdaZTk+PV7WmNelCNbJBNyRPSrhht+x7MGIq06WAX6OAAIIRAnsJmle4hXoGawiGBUeSR/Xq/p5canxHcbU/u5z63VJK5I4BBCoWuBTiVeirtT/R5KnNGZDwAJrNMtLp9bgL5gev3bLhgACCCQr4Fvsfka5YOWV2r/vkfSqZBVJ2KgEPH20541ILT4XTM/5LPM7qpDgOAggMIjAcyTdmEGlOkfSEQyoGqSos/2un/cflPhgv7FOwE2SVsxWmoQjgEB1Alt3Gle/qzxWiaX857eoYKuKz5UkfSeT2PSriExtXVV4klkEyhDw61QpN/zj03YbjwTKCLppcvEaSXdkFJd7T5Mffo0AAggkK3B8RpWtR1n7VUFPccxWloDLdKakuRnFowfUsiGAAALZCnhQ4FkZVbq+K+D1DbbLVpyELyiwvaRrMotBv5LocQpsCCCAQNYCfsf64swqYN8NOFXSs7KWrzvxSzVX/R7sOf5xT+p/v0yS086GAAIIFCHggVc3ZFYRu6HwCOxdiyiBujLhSalmZRhv1zMgta5AJbcI1CKwUWcRk3szrJTdEfBaB8+rpaAyzufGmcxDMdFdCM9NsWHG9iQdAQQQmFLgBQmvrz5RpTz+Z14gxo8FeCd7yiIO+eVyze3+2Zl2ML3ssF+dZUMAAQSKFthB0qOZVtTuENzdTCLjsQ1ssQJLSjpYkq+ex3fWcvq7zwUPVGRDAAEEqhDYOaOJgiZrTLwym2cSpCMw+pBdVNL+km7NuOF3XPmOxWtHz8cREUAAgViBN2QyFetkHYCxn/+h0xDtx/wBIwkmv8/vht+DM8f8c/3Tj5Q8WJENAQQQqFJgj0I6AW6EPMPckZK8FgJbuwI2/UgmC/d00yFx4+/YZ0MAAQSqFvCdgMcLuKIbq/gf6XQCPiNpg6pLtZ3Me1T8ZzMfMzIWF2N/eo0MrvzbiQ/2ggACBQjsJOnhgjoBY5X9L5tb1kzs0n2Q+ja/r469BK4nZBqzLOHPxzqTYr26ewo+iQACCNQh4LcDHiyswh9rtDz/wUmdVeheVEdR9pXLrSSdLOm+QmPAsc1o/75Cgy8hgEANAn4XOtfJgsYa++n+/J2kT0rasoYCnSaPz5d0TKazRE5XzuN/79cU6fxNEwz8GgEEEPCMgTlOGzy+wu/277+R9E+SXtFpCP1qW+nbYpJe2Znr/jhJ1xV6pb9g2Xt6X2b4Kz2yyR8CCLQm4LUDLqmkgRhrMDwG4uxmzICntC1h84p2zsu7JJ0jyQMkx/Jbw58XMXNkCWFMHhBAYNQCnuUtt6WE22zUPOOgG80PSnpJ506BPVLfPNjRz7kPk/TtzGfoG7QsvaQvk0SlHrGkDwEEkhVYWNLxlV01TtbweFnb30o6U9JHJb1R0iZBjYwbNh97985I/Y81HTWnLbeldyezHvTnMyX57gcbAggggMCAAu8oYOrgQRu0+HcPAAAgAElEQVSVqb5/e+f1sos7cw+c3iyKc2hntrx9mvfNfUXulQzXa25HLy9pmXHl4b/7Z17kyJ/xGAx/x++qex/elxu0rzTH8LGmSkvNv/ujpL3H2fJXBBBAAIEWBF4o6UYaHxrfRGNglqRtWohzdoEAAgggMIHACpJ+mGgDUPOVb+15/7GklSeIV36EAAIIINCigJ+tehW+uXQEuBsQHAOeqdCPR2a0GN/sCgEEEEBgGoHXS/KSvLVffZL/mBi4U9LrpolRfo0AAgggMCQB33Y9l04AnaARx8B5kp47pJhmtwgggAACXQr4kYDXiPdCK1wNYzDMGPBKfgfxil+XZyYfQwABBEYksIWkK+kE0AkaUgxc0ZnvYLMRxTKHQQABBBDoUcDz6XuA4ONDagSGeXXJvtO8e/FEM9DPyxSzIYAAAggkLuDFV35CJ4C7AQPGgCdX2jTxWCd5CCCAAAILCIyNDfAiO1xdY9BLDHg8ie8k8XrfAicV/0QAAQRyElirWWWvlwaAz9bbYfACVGvkFOCkFQEEEEBgaoGdOgvo/C93A7gbMkkMXCvpNVOHEL9FAAEEEMhVwKsL7sUEQnQCxnUC7mte7eN2f65nNelGAAEEehDw6ncn8bZA1R0Bv9N/oqTleogbPooAAgggUIiAn/WeQkegqo6AX+s7TdK6hcQw2UAAAQQQGEBg7c7UrqdKenLcrWEGApY1ENCLR50paYMB4oSvIoAAAggUKrBRp4E4nY5AUXcEfMX/ZUmeG4INAQQQQACBKQW80MtRncFhD3BHINvOwCPN4x2/BsqGAAIIIIBATwLPakaIz6IjkE1H4I5OCbvz5oGebAgggAACCAwksJikPSVdSEcg2Y6Ay+bvJLms2BBAAAEEEGhdwOMEZkq6m85AeGfAj2g8eHPL1kuZHSKAAAIIIDCJgFeH+xtJF0iaQ2dgZJ0BW/+XpL+WxAp9kwQnP0YAAQQQGI3ACs0Mg+dL8utmvELYroFNL2rGY3iAJhsCCCCAAALJCXhyoYMl/VzSPDoDfXeGbHeppA9IWj25UiZBCCCAAAIITCGwkqQ9mufUHp3OnYGpDTwvvyfr2Z9Gf4qo4lcIIIAAAlkJeLGZl0j6uKRLJHmCmto7BLMbi6MlbSeJBXmyCmkSiwACCCDQj8CikrZqnmv7qvfeCjoED0vyOAm/p/8qSUv2A8d3EEAAAQQQKEnASxVvLmlvScc3I91zfmxwe+eOx3lNXrwEs/PmPLIhgAACCCCAQBcCHkews6QDm6ltvy3pSkm+mo5+hOA0OC1O08mSDmjSumIX+eIjCCCAAAIIINCngBvabSTtLmk/SR+WdIKk/+w8Xji3eb5+VWcWw983//kxw/2SPE/+WOfBf/fP/Luxz/k7HqfgfXyx2af37WP4WFtLopHvs9D4GgIIIIAAAggggAACCCCAAAIIIIAAAggggAACCCCAAAIIIIAAAggggAACCCCAAAIIIIAAAggggAACCCCAAAIIIIAAAggggAACCCCAAAIIIIAAAggggAACCCCAAAIIIIAAAggggAACCCCAAAIIIIAAAggggAACCCCAAAIIIIAAAggggAACCCCAAAIIIIAAAggggAACCCCAAAIIIIAAAggggAACCCCAAAIIIIAAAggggAACCCCAAAIIIIAAAggggAACCCCAAAIIIIAAAggggAACCCCAAAIIIIAAAggggAACCCCAAAIIIIAAAggggAACCCCAAAIIIIAAAggggAACCCCAAAIIIIAAAggggAACCCCAAAIIIIAAAggggAACCCCAAAIIIIAAAggggAACCCCAAAII1CywuKTVJW0p6RWS3iLp3ZI+IukkSV+SdK6kiyT9svnvd5J+L+lGSfc3/z0q6f8q/c95H3OwiW1+O87Ldjb8z8bUtjZ+s6SdGnuXgcuCDQEEEEAAgVYEFpO0XqcBf1Wnwd5L0hGSTpV0ftNQzam00U61s+KOhDtaZ0qaKekgSXt0OhBbSVqmlYhgJwgggAACRQksLenFkvaTdLKkH0m6TdI8Gvhi7ky4LF2mFzRl/E5J20hy2bMhgAACCFQgsEFzq/7ozu3jsyXdIGkuDX0xDX2vdydc9tdL+qYkx4Qf46xfwXlAFhFAAIGiBRZpbv/6VrBvC99FQ19tQ99rx+DOZuzBUc0joCWLPlPIHAIIIJC5wKqS3iTpREmXSJpNg0+D31IMPC7p4s5YghMk7S5plczPFZKPAAIIZC0wo7nC91WaB3/xzL7etwl6vcJv4/N+Y+GU5g4BbyFkXZWQeAQQyEFgXUn7N7f0H2zp6q6NxoB91N35eKx5O8SPm9bJ4UQijQgggEDqAgtLepmkT0u6jgafW/qZxMBvmnkLdpTkGGZDAAEEEOhCwBXmDs3tVb+6xdU1BjnHwD3N/BGOaToDXVQAfAQBBOoT2KyTZT/P97PVnCt80k75TRYDtzQdW3cGFqrvFCfHCCCAwNMCnkbX0+bOotGn01NZDNzcvFWw+dOnA39DAAEEyhbwO9WeotVT6k52pcTPsakpBvwWiwe3MmVx2XUfuUOgWgHPye659B+m4afjQwxMGAM+N05rXi2stqIg4wggUIbAss2Vza+o8Ces8Gu6yiWvvd3VubZZgGrFMqoCcoEAArUIeBU9T5Li96Op+DEgBvqPAc9C6LsCm9RSeZBPBBDIU8C3+V1ZsVRu/xU+jSV2E8WAFy46l8cDeVaMpBqBUgX8bvNuzVzpE1Vc/IwGjRhoNwb+R9JekrzgFRsCCCAwcgGPWD6wUxHdyG1+HnMQAyEx4Dkz3i9p6ZGf/RwQAQSqFPDCJ35l6Q4q/ZBKn6vpdq+mS/D0bINHSGLZ4iqrZDKNwPAFFmsafqbnpQEqodEsMQ93Nx2BJYZfHXAEBBCoQWDR5nkjU/TS8JfYaJaYJ8+s6ZUJWaa4hhqaPCIwBAEP7vOMfddzq59b/cRAljFwU3PXjsGCQ6gg2SUCpQq8QdJvqfSzrPRLvKIlT4PdffLyxH9VamVFvhBAoB2BjSR9j4afhp8YKDIGLpC0RTtVBXtBAIFSBJZvZu57koq/yIqfK+jBrqBL8vM57jU5mGK4lNqbfCDQp4CfDfqVPo8eLqmSIy+UJzEwdQzc1wwUZHxAn5UnX0MgZ4FXSrqShp+ODzFQdQx4fMBrc67ISDsCCHQvsEpnYZGvU+lXXelzdTz11XGNPmdIWqn7aoRPIoBAbgJ+rc+zhtVYwZFnyp0YmDoG7m8eCeZWr5FeBBCYQmAdSefR8A+l4/NoZ76EaySdL+lrkv5F0ickHSxp7+b1q+07K7l5pUQvk+z/1u4MuvTAS/+31BTlVvqvnPcxB5uM+djKZn51zYa2/GRja2OPZrc5y01P3aD32+H5fhOjpccf+UOgaIEZzUAfN1L9Vga1f8+jpv2c9FuSTpb0AUm7Nw06I6njTx+XgTsMb2rKxmXksrqOZakHOucfkXSAJE8IxoYAApkJbCbpUhr+nirB25sr+VOaW6E7VH6FnlnIPyO5nsba54EffR0l6czmzsFczouuz4tLOm6bPkOWHyCAQJIC7rF/uPPfbCq5KSs5vwblSY8+KunVkpZNsjRJ1DAEXNa7SPqYJN/u9rPv2u90TZX/x5tFhrgbMIxoZJ8ItCSwpqSfUJlNWJn7mbGfz/uZsmc8XKglc3aTv4BjYWNJ+0j6t+aRz1QNYq2/+5Gk1fMvbnKAQHkCfgZ6L43/Xxp/v+3gW76e6MgDzNgQ6EVg1ebRgWfNYwnsp++QPNAZX/E3vUDyWQQQGJ7A0p1e+edp+DVH0o8lfUjSixi8NLyAq3DPvvW9dfNo7b8ZXPhUJ9sdo5rfYKnwNCDLqQl49HPNq/a50b+oedPBV2xsCIxCYAVJe3XePji38rE2fjvGnW02BBAYoYCvSA6vtPLxu9/flPR2Bu6NMOI41GQCy0nas3n18I8V3onzAMFDGFMzWXjwcwTaFfAI5u9UVtH4tS0PQHJF60cebAikKLBMM8jUA3HnVXaOeu6FZ6dYKKQJgVIEPHr92ooqllskzZS0fikFSD6qEVijeXXuhorOVz+O9LwLbAgg0LKAR/k/XEFl4tuoX5K0E7cVW44gdhch4Md1r+hMc3xap0PwpwrO34ck/b8IaI6JQIkCfkf5iM6ENaXPXuZZ+DxbG9PrlhjF5MkCfnx3UGe+gZsK7wj48Yfv3DFxEHGPwAACfqb27cIri182I6oXGcCJryKQk4Abxt2aaadLnlTIsyx6sSc2BBDoUWBLSaU+P/TI4S9IekGPJnwcgdIE/BrdFwt+o+d6SZuXVmjkB4FhCnhuej9LK+3qwA2/JxDxACk2BBB4WmCV5rZ5ia8SemXBXZ/OKn9DAIHJBN4h6YnCGn8vR+wV9labLNP8HAEEnhJYufN/j4Up7QLAy2q/izJGAIGJBTzYzyd+SVf97vm74WeWvonLnJ8iMJmAB8O6PvDc+yXVCR4cyEJck5U6P69SYLHm1bdSTnS/7nQcA4CqjGUy3a7AcySd0Fnjwo/PSqkfPOZh0XaZ2BsCeQp49rAfFHJy+1VFr8C3bp5FQaoRSFbAS317/IzXvyihI3ABU3knG2skbEQCfib+60JO6PM7ryy+cERuHAaBWgU8054XISqhE3BV520gd2zYEKhOYGNJnuo29xPZHZidqys9MoxArMAukq4ooP6YJclTnLMhUI3AJpI8813Ojf+DzaxmM6opNTKKQFoCnjzLMwvm/sbAXZ0VPrdIi5bUIDAcAd8mvyfzxt+3IHmXfzjxwV4R6FXAb9l4rYGcVyC8X9I2vWaczyOQk8BWku7LuPH3al+epIgNAQTSE3i5pKszrl/8yuN26bGSIgQGF9gh41t1np3scF7dGTwI2AMCQxbwK8UfznjlQT/OcF3JhkAxAi/LeCnfSyV5wCIbAgjkI7B+Zxnin2Z6N+AxSa/Kh5qUIjC5wGs7V885zu/tyXy8DDGD/CYvW36DQMoCXnXQgwR9Luc24NgTH70hZVzShsB0An5VJ8cZvLjqn65k+T0C+Qhs2lmM5/JMOwGuQ9kQyE7gpZJ8Kyunnrc7K37Wz1V/duFGghGYUsCvDB6Z4bLDXkjMdSkbAtkIbCnJr7Xk1Ph7hD8z+WUTYiQUgb4E/CbS9ZnVTZ5z5EV95ZYvITBigQ07y17ekdkJdpak5UbsxOEQQCBG4FmSvpJZHXW3JE+gxoZAsgKe1/qmjE4sD070ICE2BBCoT2AvSb7FnsudSk+dvk59xUSOcxBYWdJvMjqZrmX6zRzCijQiMFQBX1VfmVG95ccXnvmQDYFkBLxmd04n0ZckLZmMHglBAIFIgaUknZ5RJ+B/JS0fCcaxERgTcEN6SSYnz5Od2QgPHks4fyKAAALjBA6TNCeTuuwiSUuMSzt/RWDkAgtlNJjGaxAwj//IQ4QDIpCVwGsyeoPpTEmug9kQCBH4ZCa95etYczskPjgoAjkKbJDRokJH5whMmvMX2DuTxv+7kpbNn5scIIDACAWWkXR2BnWcl0Dec4QuHAoBednN2RmcHMdxi4xoRQCBPgW8lsBJGdRznsF0xz7zyNcQ6ElgPUmelCLld2fdK/aAHjYEEEBgUAHPFTI38Trv3s54LE/CxobA0AT8up+nzE258Xdv+G+GJsCOEUCgRoE3ZbCq4A2SVqyxcMjz8AUWlfTfiTf+D0hPPZ4YvgZHQACB2gReIcnz8qd8AfQTSa6r2RBoVeAziQf+bZKe32qO2RkCCCAwv8BmkmYlXhd+ev4k8y8EBhP468QD3tNjrjVYFvk2Aggg0JXA2pJ8uz3lOwF7dJUTPoTANAIbdWbPeyjhYPc7/qtPkwd+jQACCLQp4Pn4r0m4XnxE0qZtZph91Sfgd2FTDnIv6PPc+oqFHCOAQAICqyS+Boovjrz0MRsCfQl8OeEe7q8Z8dpXmfIlBBBoT2AlSV6cJ9XHAV9tL6vsqSYBv/uaalD/UtIKNRUGeUUAgWQFlpN0WcL15fuSlSNhSQq8RNITiQb05Z3ZuZ6dpBqJQgCBWgXcCfifROtMz9q6ba0FQ757E/BkP7ckGshXceXfW2HyaQQQGJmAHwd4XFKKd05vluROChsCUwp8LdEA/r2k1aZMOb9EAAEEYgX8RtKNidah34il4eipC3hVqRR7r57kx2sQsCGAAAKpC6wv6fZE69K3pY5H+mIE1pB0f4JBe48kz77FhgACCOQisLmk+xKsTz1dOpOm5RJFI0qnl738cYLB+rCkrUdkwGEQQACBNgW2k+QJeVK7q3oBy6S3Wcz57+uDCQbpnM6o2t3ypyUHCCBQscDrJD2ZYP36gYrLhKyPE/Dt9T8lGKC8uzqukPgrAghkK3BggvWrl03fIltREt6KwOKJzmJ1Qiu5YycIIIBAGgIprqbq2VQXS4OHVEQIHJNgz/RsSR6TwIYAAgiUIjBD0rkJ1refKAWYfPQm4FGqqc325yl+l+4tG3waAQQQyELAi6v5qjulQYGeJZC3rLIIn/YS6SvsSxILRM8+yMp+7ZUxe0IAgfQEPFFQanMEXMRd1/QCZZgpek9ijb/vRLx0mBlm3wgggEAiAl5rxVfeKd0J2D8RG5IxZIFVJXkyiJSC791DzjO7RwABBFISSO3NgAeZaj2l8BheWs5KrPE/fXhZZc8IIIBAsgL/mVhdfEayUiSsFQFPSpHSlf8VkpZqJWfsBAEEEMhLYElJv0qsTv6rvAhJbbcCbmhTWqXK6w540Qw2BBBAoFaBDRJ7JHsTb2KVGYrHJdTTnCeJnmaZcUauEECgN4E3SnKdmMrd2WN7Sz6fTl1gXUme+jGVAPOsWGwIIIAAAn8W+NeE6me/ocDd2YIiM6WBf9dI8rMvNgQQQACBPwssIenKhDoBDAgsJDL9zmkqt5d8F+L5hbiSDQQQQKBNAc/OmsrCbG4zmJulzdIN2NdCki5OqFd5UIABh0QAAQRyETgsofr6UkluQ9gyFXh7QsF0HsGUaRSRbAQQGJWAp2k/P6F6+62jyjjHaVfAz9lvTiSQ7pHkGQjZEEAAAQSmFvB6AfclUnf71XEvG8+WmcBHEgkgv3nwtszsSC4CCCAQKbB3QvX34ZEQHLt3gZUlPZxIAH239+TzDQQQQKB6AT82TeHVba8TsGL1pZERwImJBM5DktbMyI2kIoAAAqkIrC3pkUTq8pmpoJCOqQVWkfRYIkHjZYfZEEAAAQT6E/CbUyncBXhUku8ssyUucEIiAXOJJI9oZUMAAQQQ6E/AdehFidTpn+ovC3xrVAJ+TpPCLSNP+LPpqDLNcRBAAIGCBTZOZIIg7gIkHmSpXP1/PHEnkocAAgjkJOAFelJ4FMBYgESjJpWr/1tYTjLRCCFZCCCQq4CXc09hXhfuAiQaQalc/TNzVKIBQrIQQCBrgVRmdmUsQGJhlMrV/4VM95tYZJAcBBAoRcDz8v80gUcBvguwUimoJeTDPbLo50NzWOmvhFAiDwggkLDAVpLmJlDffyJho6qS5mdD9yYQEP9clTqZRQABBGIE/j2B+t5rFbjtYQsW8GQ70Vf/90taIdiBwyOAAAI1CPj2u6fnja73/74G7JTz6GdC1yYQCEemjETaEEAAgcIEPpZAvX8dY75io2rXBILgbknPimXg6AgggEBVAstIuiuB+v81Vaknltn/SiAADkzMhOQggAACNQgckkD9/4MaoFPM42aS5gUHgCemWDxFHNKEAAIIFC6whKRZwW2A2yCmfQ8ItM8HF7wHoOwbkG8OiQACCCDwZwEPxIseDPhvFMZoBTzxzx+DC/63khYZbbY5GgIIIIDAOIEZkn4T3Ba4LXKbxDYigQ8GF7h7nG8bUV45DAIIIIDA5AIpTBF86OTJ4zdtC1wT3AH4PVf/bRcp+0MAAQT6EvBdgBuC24Sr+0o5X+pZYPvggvbV/7t6TjVfQAABBBAYlsD7EmgXth1W5tjv0wLRg//ulLTk08nhbwgggAACwQJ+I+CO4E4AgwGHHARLS3oouJA/NOQ8snsEEEAAgd4F/iG4bXDbxPoAvZdb19/YJ4ECXq7r1PJBBBBAAIFRCSybwBoBe44qszUe52fBHQAvO8yGAAIIIJCmwAnBbcSP02TJP1UbBs/894Sk1fJnJAcIIIBAsQJrSHoysBPgmQHXK1Y3MGPHBhaqR/6fGZh3Do0AAggg0J3A2cFtxce7Syaf6kXgxuBC3amXxPJZBBBAAIEQgVcHtxVuq9haFNgmuECvZd3nFkuTXSGAAALDE1hI0nXBbcYLh5e9+vY8M7gwD6iPnBwjgAAC2QocHNxmfDJbuQQTfn1gYT4mafkETUgSAggggMDEAn5d23V31EqBXiyOrQUB30qJKkQf99QW8sAuEEAAAQRGK/CF4LZj89Fmt8yjfSK4ELcuk5VcIYAAAkULeG7+yIvHo4rWHVHmPAAvqhB9bDYEEEAAgTwFIgcDXpUnWTqp9i2UqMbfxz0yHQpSggACCCDQo8DHgtuQTXpMLx8fJ+BbKFEdAM/otO64tPBXBBBAAIG8BNYPnkHWCxSx9Snwi8AOwE/7TDNfQwABBBBIR+DiwHbk0nQY8krJipLmBhbc3+fFRWoRQAABBCYQeG9gOzJH0nMmSBM/mkbgbYGFNptCm6Z0+DUCCCCQh4AbYNfpUY+T35IHU1qp/I/AAvNiEmwIIIAAAmUIfCewPfn3MghHm4tZgQX2d6PNKkdDAAEEEBiiwD6B7clNQ8xXkbuOfP3Pz2xWKFKVTCGAAAJ1CrhOfzKwE7BRnez95fqQwIL6cX9J5lsIIIAAAgkL/CywXWFBuR4C44eBBXVQD+nkowgggAACeQgcGtiueAwCWxcCSwSv4sTkP10UEh9BAAEEMhPwpEBRbwI8KmnxzLxCkrtTYCFdGZJjDooAAgggMAqBawLblx1GkcHcj+H596N6aV55kA0BBBBAoEyBYwPbl8PKJG03V5Hva7603aywNwQQQACBhAR2DOwAML/MNIGwkKS7gwroEUmLTpM+fo0AAgggkK/AYpL8PD7iLvOd+bKNJuUbBhWMg+F7o8kiR0EAAQQQCBQ4L7CdWScw38kfes/Agvlg8jokEAEEEEBgUIEjAtsZr3HDNonAvwQWzIsmSRM/RgABBBAoR2CbwHbmM+Uwtp+TXwcVzH2SFm4/O+wRAQQQQCAxgRmS7g9qa36RmEUyyVk6cK7mbySjQEIQQAABBIYtcE5QB+AJSUsNO3M57v/lQQXiAYDvzxGMNCOAAAII9CXgKd8j3gTwMZkQaIIi82IJUQWy9QTp4UcIIIAAAmUKbBfY3ry3TNLBcnVqUIE8zhzNgxUc30YAAQQyE/CaM7OD2px/zsxqJMm9OKgwLhtJ7jgIAggggEBKAr8ManN+mhJCCmnxDIAPBBXGZ1MAIA0IIIAAAiMV+NegNsdvILCNE1grqCA85mCvcengrwgggAACdQjsG9jurFYHcXe53DWwIDbpLol8CgEEEECgIIHNA9udXQpyHDgrhwcVxMNMADRw2bEDBBBAIEcBT/7mNiDi7bNDcgQbVppPCyqEnw0rQ+wXAQQQQCB5gYuC2p7/SF5mhAn8VVAh/NsI88ihEEAAAQTSEvh8UNvD22fj4iDqNoxng2JDAAEEEKhTwLfiIx4B+K03NkkrBBWAC52BGIQgAgggUK/A6wLbn2XrZX8651sFFsCaTyeDvyGAAAIIVCawTmD7s2Vl1hNm901BBfCIJE9AxIYAAgggUKeA3wR4NKgN2q1O8vlzfXAQPusyz18O/AsBBBCoUSBqELoXwKt+OzmoA/Cl6uUBQAABBBD4SlAbdAL00tlB+B8DHwEEEECgeoGjg9qgb1QvLynq9ss7wEcAAQQQqF5gv6AOwOXVy0u6Lwj/1eAjgAACCFQv8JqgNuju2uWXDoL3HAAsAlR79JF/BBBAQNossB1aquYCWDcQfpma4ck7AggggMBTAs8KbIfWqrkMoiYBYhrGmqOOvCOAAALzCzwU1Al4wfzJqOtfnoo3Yh7mK+tiJrcIIIAAAlMIXB3UFu08RZqK/9XbgtC/X7wsGUQAAQQQ6FbgB0Ft0Vu7TWCJn3t/EHrEXQeOGXO3B3fciQFiINUYeE+JDXu3efJkPKkWDOmibIgBYoAYIAaGGQMf6baxLPFzp9ABoANEDBADxAAxUGkMnFRiw95tnk6vtNCH2aNk31yxEAPEADGQRwxUvSaNB+MRqBgQA8QAMUAM1BgD53Z7tVzi5y6iA0AHiBggBogBYqDSGPhZiQ17t3n6RaWFXmNPlzxzhUcMEAPEwPwxcFm3jWWJn7uCDgA9f2KAGCAGiIFKY+DXJTbs3ebpukoLnV7w/L1gPPAgBoiBGmPgmm4byxI/dyMdAHr+xAAxQAwQA5XGwA0lNuzd5unWSgu9xp4ueeYKjxggBoiB+WNgVreNZYmfu5sOAD1/YoAYIAaIgUpj4M4SG/Zu8/RgpYVOL3j+XjAeeBADxECNMVD10vR/pANAz58YIAaIAWKg0hh4rNur5RI/N6fSQq+xp0ueucIjBogBYmD+GHAbWO02mw4APX9igBggBoiBSmPg8Wpbf0kMApy/N0jvGA9igBggBuqJgaoHAV5aaa+PE7yeE5yypqyJAWJgshjwejjVbifQAeDWHzFADBADxEClMfBP1bb+knastNAn6w3yc64UiAFigBioJwa2r7kDMEPSXXQC6P0TA8QAMUAMVBYDfv6/cM0dAOf98MoKnd59Pb17ypqyJgaIgcli4NDaG3/nfwlJN9MJoPdPDBADxAAxUEkM3CJpSToAfxZ4i6R5lRT8ZL1Bfs6VAjFADBAD5ceA27rdafznFziGDgC9f2KAGCAGiIHCY+Dj8zd9/MsCHgzxtcILnt59+b17ypgyJgaIgcli4KsM/Ju8w7NQ51dH8TiAKwA6gsQAMUAMFBQDvu0/k8Z/8mbLlugAAAB0SURBVMZ//G/eLGlWQYU/WW+Qn3OlQAwQA8RA2THgQe488x/fwnfxd78dcJgkvyvJCYIBMUAMEAPEQE4x4Lbrg82bbl00eXxkIgGPDdhB0vGSLm46BKwiSEWQU0VAWolXYqDsGHCb5AbfbdRxkl6aw+3+/w8h6MlzGK5eQgAAAABJRU5ErkJggg==;" vertex="1" parent="1">
          <mxGeometry x="824" y="194.5" width="42" height="42" as="geometry" />
        </mxCell>
        <mxCell id="sp5y3ripQascYOn5C88f-60" value="" style="shape=image;verticalLabelPosition=bottom;labelBackgroundColor=default;verticalAlign=top;aspect=fixed;imageAspect=0;image=data:image/png,iVBORw0KGgoAAAANSUhEUgAAAgAAAAIACAYAAAD0eNT6AAAAAXNSR0IArs4c6QAAIABJREFUeAHtvQfYNEWZtn1JUKKZtOaVpCJmxYS6qN+aMKDuSvRfcwDWRNBPZF0XEDCgq2vEiAFQVBQUDIggQcwBA4IIIkqSsIAEv38umeGd53kndE9XVVd1n3UczzHzTHdXOOuuu+6ucJdEgAAEILA4gfUlPUDSkyTtLOm1kt4m6eOSjpV0hqQfSPrt8O8iSZdKulrS/xv+XT78zb//XtJZkr4n6ThJn5X0P5L2G9yzm6RnSHqIpI0k3WLxbPMkBCAAAQhAAALzCNx62OluP7hxX0mHSTpd0l/GOvFRZ57y869DY+Erkg6W9CJJj5J0x3kF4joEIAABCEAAAksJrC7pPpJePHyL/7mkG1vu6BcxKi6QdPSgaDZYniZpw6XF5D8IQAACEIBAvwncQdJzhsPsHqq/rsDOvqqB4GmIj0jaZfB5t35XO6WHAAQgAIG+EVhD0j9J2n84z17i233VDn/efecMDQIbQLfpmyBQXghAAAIQ6D4Bz4l7fvyrkv63w2/48zr8Wdc98vFNSa+RtFn3RYISQgACEIBAVwncfrgq3/PgXR7Wn9WpN7nmtQ9eP7BpVwWEckEAAhCAQHcIrCPpBcPtc9fzpn/zNsMmhoCf9Y6HVw+3HnZHWigJBCAAAQgUT+BBkg4Z7qVv2tnx/Ar/BMtZeL3E8cNFk6sVLzUUAAIQgAAEiiTgvfkvHWxx+z5v+sHe9Jd3+LP+P2/giOg/JN2lSOkh0xCAAAQgUByBf5T03sFitSvp+Fvp+JcbBZ5q+fTQUVJxwkSGIQABCEAgfwJbDh3zMLc/fYh+eeec+n+7PbY7ZKYH8m9P5BACEIBA9gTs2tYr+f/GG38Wb/xVjAo7HLInRQyB7JsXGYQABCCQHwE76/kunX4xnf4kw+CXg7MKdpS0an7iRY4gAAEIQCA3AvcfnqI3qUPht3yH/2fVjQ2Bf+H0wtyaGvmBAAQgkAeBuw72mb9f0g289Rf91j/LELA/ga3zEDdyAQEIQAACbRPwYTzvlOSjbWd1HlzrDp8jJW3ctuCRPgQgAAEItEPgFpKeL+kiOv5eGj42+A6QtFY74keqEIAABCDQBoFNhh7leKvvzlv9onV5vqRntyGEpAkBCEAAAukIrDlIygfMXMtbfy/f+mcZCd7qefd0okhKEIAABCCQisATBk5izu5ox3+VpB9LOmbQiX1U0v6Sdpf0r8NFbz6rwKMe9mK4weDcgtstG/q2W2P/5j8vhtxC0qMlbStpl+FBPF4n4bnzUwdHG/+ho34R7N3R7p09PUSAAAQgAIHCCfit3wf1dMGRzyWDDv2bg078f4Yd/BMl3a2lDstz5w+Q9DxJb5Z0+GDP/VkdMbCO44yBwls92YcABHpPwB2Uz5WfNfSb6zVvR/Rb/fuGb+GbtdTR1xUijyJ4tGVvSV+QZKMlV8az8vWX4SLRuuXnfghAAAIQaJGAPb/tVeDWvl9IOnjYga7bIr+QSa8yMATsXMlTEjYIrijMIPj8cGokJBPiggAEIACBCAQ8h31iIZ2M5+6/JOllPVqAdsuhgeM1BaVMGZwjaasIskqUEIAABCAQiMA2Bezr9w4Ev1U+a7APfY1A5S45mvtK+q8CFmheJ+m1hUzDlCwP5B0CEIBALQJetf26jN343ijphMHq+RcxnDy1Xl2HDxsu2Mx53cCXB54jbzu1FFyAAAQgAIFkBNaR9NlMh/wvHK6Q97QEoToBj4xsP9zxkOPujV9J2rx6cbgTAhCAAARCE/De9p9m2Pl/T9JOg/34twpd4B7G5zp+lyTv0Z+1aj/1Ne8SeHIP64MiQwACEGidwOMGK8svy6hTuF7SpyU9vHUy3cyAh933lGTXvak7+2npeavmHt3ETakgAAEI5EnAzmdycefrTuBjnC6XTFBWl/SCzBYNfljSaskIkBAEIACBnhLwfnIvqpv2Vpbqd+fB3u/soIeQnoANgZ0HawV+nYEsWObsPbArvhvS1yYpQgACEJhBwA5l7NI3VQc/LR0vSvNQP4vAZlRWwks2BF4+8KXwpwxk43RJ6ycsO0lBAAIQ6DwBrwo/IgMF78V9zPHnKW4+0Gi/wZz81S3LiZ0bcapgnjJCriAAgcII+DCf41tW6t7O92+DLX0ehSDkTeAuGWwL/f3w9MW8SZE7CEAAAhkTaLvzt/c3TzvcJmNGZG0yAe8SObNFw9FGo70cEiAAAQhAoCaBtjv/76PAa9ZYfrd76mjfFg+F+rOk++WHhRxBAAIQyJdAm52/9/MfMJhP9qE1hG4QuI+kM1oaDbhosH7F6RMgAAEIQGAOgTY7/58MTud74Jz8cblMAt6nb0dCf23BEPAOBXaNlCk35BoCEEhEwFu6jm1BQduZz5sHp9I5fUK3CTyoJd8BXhjI7oBuyxalgwAEFiTg0+A+2kLn78VaPkaY0B8CdthzWAuy5i2CG/QHMyWFAAQgUI2Az4Sf5nwn1u8nSvqHatnjrg4SsCfBqxLLndci+ARLAgQgAAEISHpxYiVsb37e3seQP+K3ZQvnCnyDRaYIHgQgAAHpGZI8Bx/rLX95vFdIehrgITBG4I6S3Ckvl5WY/x8qydNeBAhAAAK9JGC3uildt54nyW98BAgsJ+BdAqnPmnj98kzwPwQgAIGqBOzoxCuLHyLpnyXtKMmn5f3f4V5272d/l6T3L/t79/C6naS8aujmdrvBW9CjJW0qae2qGWhw30aDof8LEr51/UjSnRrkl0f7QWDXhCNSPlFy235gpZQQgMAiBNYadvAvHB528ilJ35X0x8idpxdH/UzSFwbHnL5teOKaV8uvt0ghlj1jJzsnRc7/+PCttxZyVOuySuDfqQSemXBkylNSOAqaWhVcgEB/CHh1sDtZv8H79Dufde63hPHOLIfv3jrn88/fqpvm8DesWUX/nbBMH5Dk4V0CBOoQeISkixPJqbcH3qFO5rgXAhAon8DtJT13OExv3/N2Q5tDB79IHs6R9HFJz5d01xlVs0vCMh48Ix9cgsA8AltIsrG7SHuo+8wxnDY5rzq4DoGyCfg42QcP3/A9jJ9y9XtdhdT0fo9e+E3/iWNbnuxmN9Wiv/3LFhVynwmBzSR58WjT9lDl+b0zKTPZgAAEAhFwp7/1sDOMPW9fRcm0cc/lwzPaf5dIkdqtLwECoQjcI5GvAI8AWlcQIACBwglsJemdkv6QqNNro2PPMc03Fi43ZD9PAncb7JaxP//YMm99sX6eCMgVBCAwi8DtJO0m6acJFEVsRVRi/HT+s6STa00JeItsilG8LzXNKM9DAALpCNihzScGx41eQ8cf/Q1pmmHi9QYECMQmcN9EuwNeFLsgxA8BCCxOwHP7z5J0Mp1+a53+yBjwlknXBwECKQg8VNL/Rm73Vw5eKu6ZojCkAQEIVCdg73svl/SbyApg1LnxOXve9YSBV0PXCQECKQnYg1/sXTx+uVg1ZaFICwIQmEzAJ8f51Lrz6fhbf+MfGUVea+F1FwQItEEgxSmWr26jYKQJAQjcRMBe5P5Nkh3djDoePttn4XME8O1PK22bgN1kx9QHdsntbYgECEAgMYEnSTozcgOPqTy6Gvd1kh6ZWBZIDgKTCHiI/quRdcTXJiXMbxCAQBwC3u5zdORG3dXOOUW5vAaDAIFcCHgaKvaaIJ/0SYAABCIS8Ilx75DkN8wUHRlp1Of8kYj1T9QQWJSAtwd6uD5Wm/7zwLHYbRfNHM9BAAKzCTxF0rkRG3AsxdCneM9gxf9sIeZqqwS2j6w/7FmUAAEIBCTg8+0Pi9xw+9RJxyrrJZLsjpUAgZwJHBpRl3hk8t45F568QaAkAttJuihig43VGfYx3n8tSbDIa28JrB154fBxvSVLwSEQiMA6kj5Mxx9tvjK0geIRGgIESiFw/8huwZ9WCgjyCYHcCNiNZ+wVu6E7wFnx+QjRs4cuiX2IiBfJHSRpr4ES2lPSrkMHRnZa4r+XDH/3tf0kfUDS5yR9S9IvIyuuWeWYds1nsbP4KbdWRH7mEdgj4gvGz/AQOA8/1yGwlMAtJL2m4BX+F0v6xvCI4RcMOuzHDOfE7agodNhQ0sMGhtIOkvYfbolswxHS3yRtE7pwxAeBBATsH+DUiEbALgnKQBIQ6AQBD/l/NmJjnPb2uujvfqv/3sDN7SGSnivpzpnUwu0lPXlw8M6bJX19YFD5wJJFy1jlOVY9Z1LxZGMhAveKOKL2u4FxfquFcsVDEOgRATv18ZBZlQ6nzXv8hv0/kp4uyQZLCeGWkh47HCX4viS/sYdieDpb/koQAfI4h4Cn2kK1ieXx/PuctLkMgV4T+GdJf4nYAJc3yLr//3zQae7Toa099s2/m6QTJd3YgPtZg0Wad+m15FL4rhDwIWI+tKqubqhy/x8xkrsiJpQjNAEvePNQepWGlPIenyb4FklbhC5wZvFtJOlVC4y+eDHi+pmVhexAoAmBrQOPjo3rq1c0yRjPQqBrBLzY74DMOn6fG+4V+t6+08fzvb2g0LsNLp1RLz+UZH/nrj8CBLpG4OMzZH+8Q6/73d5LPRVHgEDvCXhRTE6L/S4fzOcfLOmuva+ZmwB4OPRxw2kC7y7w9IePWsa7GQLSdQIbRJyO9K4gAgR6TWDNwda1YyNZ2XWtcg/zv1bSrXtdIxQeAhAYJ7B3JP1k/x2rjCfEdwj0iYDdb3pbWt2OOvT9divsVb82RggQgAAExglYL/w+kp7y9lwCBHpHwF7iTonUqKoaCJcNO34bIgQIQAAC0wh4yquqXqlz39emJcjvEOgqgdsMHebUaSgh7/XivvdJ8omCBAhAAALzCHgRcIxtgfbBwVqaefS53hkCfts+KZI1XcVIOEHSlp2hSUEgAIFUBOzds4qOqXuPHYkRINB5At720taCPzsW2p1FN52XMQoIgVgEvGAvxiiAXXOvGyvTxAuBHAh4K9nRkSzoeRb3UYP97P+QAwTyAAEIFE1g+0g6zGsMCBDoLIEPRWo4szr/KyQ9v7NEKRgEIJCagNcC/CqCLjs5dUFIDwKpCLwhQoOZ1fH72mmSNklVQNKBAAR6Q+BlkfQZiwF7I0L9KejzIvrTnmQEeFWtXQqv1h/ElBQCEEhIwAuZL4lgBByYsAwkBYHoBB4p6doIDWVSx+/fPOS/XfRSkQAEINB3Am+NoNd8PgBnavRdsjpSfp8qd0GERjKt87dbzXt1hB3FgAAE8ibgc0JinFrqlyYCBIom4BX/Kff6e2//7YomRuYhAIHSCHh30bQXkkV/f3dpEMgvBJYT+O8IDWNagzp8MOe/xvIM8D8EIACByASeGkHP/Zn1S5FrjeijEtghQqOY1vnvx5xZ1LokcghAYDoBLzT+QwR9t/X0JLkCgXwJ3EPS5REaxCQD4E35YiBnEIBATwjsH0HfHdQTdhSzQwRsDduZxaTOOuRv3ua3W4e4URQIQKBcAptG0Hle0EyAQFEE/EYesqOfFJc7fzvhIEAAAhDIhcAPIug+nJjlUrvkYy6BrSJtiVluBLxmbk64AQIQgEBaAntHMABenbYIpAaBxQj4hL+fRWgAyzv/Ny6WPZ6CAAQgEJXAP0bQf8dEzTGRQyAQgX0jCP/yzv+QQHklGghAAAIxCISeBvARwfanQoBAtgQ2T+Dq98uSfAIXAQIQgECuBGK8COEVMNfaJl9aRdIpkd/+T5e0FqwhAAEIZE7gYRF0IdOemVd6n7P3gggCPz70f76kDfsMmLJDAALFEPALkb34jeuwpt9/LOlfJD1K0t0leb0VAQKtE7i1pAsDC/t4Y/mrpIe3XkoyAAEIQKA6gU9G1Ikj/Wi963NWPixpT0nPkLQZ06TVK4k7mxOIcRTmSMD9yV7/5nVEDBCAQFoCOyUwAMb15Pj3q4aGwbskPV/SFrhJT1v5fUlt48gL/z7eF5CUEwIQ6BSBu7VoAIwbA6PvF0vyiYX/LumBjBJ0StZaK8wREYX8LEnrtlYyEoYABCDQjMC5EfXjqGNf9NMGwWGStpd0h2bF5Ok+EniAJLvjXVQAZz13PfP+fRQpygyBThFIsQ5glh6teu2G4dkt9q56l07VAIWJRuBLkTp/Cy2n+0WrNiKGAAQSEXhJRB1ZtXOve59f6rywcFdJGyXiRDKFEYixz3UkqD/C61Vh0kB2IQCBSQTuV6ABMNLD/vTIwNGSni7JJ7wSIPB3Al+NJNge+n8QjCEAAQh0gIDd914bSVeOd9Qpvl8gaX9J9+hAvVCEBgRiWrUHNsgXj0IAAhDIjcAZHTEARkbGjcNRgcfnBpr8pCEQa2GLV8zi6jdNHZIKBCCQhsAHO2YAjAwBf5429E7I+SxpZKn1VLxC9LpIAm03lwQIQAACXSLw8kj6crwjbvv7mZJ2xLdAl8R2clkOjiTM38FT1WTg/AoBCBRNYMtIOrPtTn9S+r+SZA+IjAgULbKTM7/OwIvUXyIIs+eUWPg3mTm/QgACZRO4haQ/RNCbkzrgXH776WB64EllVxu5X07ghZGE+LPLE+J/CEAAAh0isHck3ZlLhz8tH1+XZIdxhA4Q8IKPaRW96O/eZ3qvDrChCBCAAASmEbBL83Mi6M9F9W7K5zzC69MK7zgNDr/nTyDWPBaH/eRf9+QQAhBoTuBRgyN7r+mpEWCDw2cPeBTZUyKEwgj8dwTB9dv/JoVxILsQgAAEFiXwZElXR9ClKd/om6Z1siS/UBIKIXBLSZdGENojCyk/2YQABCAQisC9JXXNOVBdo+Cvkt6Ie+FQIhU3nqdE6PwtMI+Im21ihwAEIJAlAQ+Dbyvpc5Iuj6Rf63bKbdz/PUn3ybKGyNTNBDxPH1o4PAxEgAAEIAABaUNJdrHuQ9bsYvepkp4j6cWDI9f3kfRuSR4xtb+Urm0p9LqI17E2IM9msEakvf94/cuzvskVBCCQPwG7TPc8+rMGnllfP3iLPmLggOe3EV7UQr/4zYrPB8ytnz/6fuXQx0DOqrRFrv1ZktcVECAAAQhAIByB20p63HDU4HhJV0XQ34vo/KrP+MRB55+QCYGPRBCggzIpG9mAAAQg0GUCPo744UOD4PTB598i6POqnXvV+7w77E1MCbQvll6o8sfAAmMB3Kz9opEDCEAAAr0jsNFwL/7REQ91q9rRz7vvKEl2oERoicADA3f+rvBTWioLyUIAAhCAwAoCd5D0UkknZjwy8DNJ91yRZb6lJPCGCAbAv6csAGlBAAIQgMBcAneX9F8Dg+DCCDp/3pv+vOuXDHY/bDO3BNwQnMBJgYXBPqHvHDyXRAgBCEAAAiEIeHG2d2h9O7Dun9fJz7tux0E+ZpiQiMDakq4PLAQeaiJAAAIQgED+BHyKn33AeFHevA46xXWvH9s3f2zdyKG3YoSu1Nd0Aw2lgAAEINAbAl607dP8Qr8QLtq/vEfSqr2h31JB7ad50Qqa9px9YBMgAAEIQKA8Al4n8P6BD39P5U7T8al+/+xgzYK3OBIiETg2cCWfGymfRAsBCEAAAukIeGrAXvtSdfbT0vE5CjiUi1Dvq0Rw//u+CPkkSghAAAIQaIeAzyz4RcuGwDGS7K6eEJDA5hEqFd//ASuIqCAAAQhkQMCdr7eLt+ly2KMRt8qARWey4M562rDLor+z/a8z4kFBIAABCCwh4PUBPntg0f6h6XNfkLTakhzxz8IE3hK4In+3cE54EAIQgAAESiBg1/E7S7LjnqYd+iLPf0KSp68JDQl8MXAFfqphfngcAhCAAATKIODR3rZGA95dBqK8c3lOYAMA97951ze5gwAEIBCSgN/E92zpwKE3hyxI3+KyB8DQR0b+U98gUl4IQAACENBDJZ0V+IWyyvTALrBfjMB9IlTWHRfLCk9BAAIQgEDhBHykr4/2rdJxh7rnusEph7x4LiA4Tw1cUecvkAcegQAEIACB7hDwAkFPCaT0IujFiHZjTKhB4BWBDQAvBiFAAAIQgAAEninpysB9zKxRg19Luj3YqxM4OHDl2Hc0AQIQgAAEIGACW0ryyPCsjjvkNb+EcnhQRdk7PHDFvL5iutwGAQhAAAL9IHAPSWcG7mtmGQ379ANr81J+K3ClbN88S1nGsJakJwzntQ6V9F1Jv5V00eC3awIznCXYXbx29ZDl0ZJeLOl2GUrAvSTtLelrkn4m6TeSTpL0AUlPy/SQEh/x7X3SP5b0Z2S00Ruo27jbutv8ycPjcj3Hbf/4a2YorzlmyUPzZpdCh3ntwRNzhJBbnn4auEIemVsBG+RnPUm7S/q2pGsDc0rRCEpNw4t5XpPJMN49JXmUbN5W2bMHRsEODWQt5KMPkvQd5DVJR+M2Zt3gF6ldJbEDarYkrzNklUI32WC76+zscPWCwIpi0w4gtRFjX9PeWpJCUEljMucvS7p1i/L0fwYG4GU1ZeCwlt8Id2JEqtU2a53xeUmPaFFuc0/aIyapjhe2Icx6gBkS8deaCm5eZ1XyCsytJZ0QmMc8Xlyf3PmPuHy9pUM/PLR7/YKy4A7A26BSh2dXGKkYceVzttyF4PPNgYvcLo2IhpRnn+ZnAz8E53lx7BUy412Ky29X8+DVuX5DoYczbCDp4yjPoLJQR27m3btf4kZn3+ZNDzjZI3GeN5H0v4Hb87x64fp8/empo49KWj+xPJSQnI8W/kYCmfVL7gNKAJI6jxsGhu85l9LCsyRdGpgDinG+YqzDyHOsPn40VfhwAHnw3mcblqnCEQHyXKdOuLeejNugfHoqYSgoHa8JODWB7Hrhrg0OwhiBuwUGX9IxwLccOIx4V+DyoxTrKcU6vOyvIkWwUbzo0P/y8qQ6pMTG0bxFisvzxv/xZHUaW9fR2yWtnkKQC0rD08Y/SaCL31YQkyRZ9bDhNGFd5PdfJcl180R8ANKxgcu+CC+eqS5/PmAkRfA2xFD1YqWWIvj0zVB5Jp74LL2uxf7yCSsI/IOk30eWY09Re4cMYUgg9EFA3lKYe/A2ndMjCxpKNI4SvW0C4fpIYNlIsYvB61eQubIYnDbw0XCHBPJcUhIPTOA2+PvsClghEgYeUnGcsSLqLL/ZmY8d+IQsM3Gl42mDNXawo5+Qdbp57AwnWkgVkglx3SRjfhHxHDhhBYEnS/KbekwZedWK5Pr97cGBQedsAHjO/7jA5Y0ppMS9shJIYQCEXpV83wQqxkPKyEuZDDwVyZqApY3EO2hiyrMX6OIgaHBm8/0Cg/7F0nrM6j8W/MVtVDEb7CjuFC6CPxm4TaTwi8EUQNmyzeK0pV2FfWjYl8ao3cf49K6Z3od7B4Z8TqZE7audVdJxG1SMRjoeZ6pFgHZBPJ5uk++pdsWwCDBcnTWp70WftW56Rqa6s61seZGkXygXZVrluUe3Vbhc0g29C8AHjuQWvBebff5xG1KVxtb0nlRvSSHbhA/iSRF80hoGbtkyfrEknz1CWEHA02c+KKyp7pj2vBdituGxc0UJW/4W2g/AVS2XZ1Lyn4goQNMEi9/DNlo7AnInlyp8JYDMeCGTTxBMFT4XIM/IbVi5rcvTO1AISwm8IrJcd/X02qUUp/znbVV1hXTW/T6CMSeLyr79eTMKW8ez6j/WtQOmyG+sn702pulBUO+Nlbkp8foQLlwBly3r1lWcHbBUwN2fHBO4nxrXU+f22UPgKpLcaY8Dafo9p7OxfYxv0/LwfLsMT5TkHRypw//XQHZ+IMlbTlOH7TB4i2/v3tFBWErA5yhc2KA9ztPhuy1Nrl//1T3udB7MXLZXPCqiwMxjwPUwRoMt/9u02By9HanunmT7Nd+oxTzvMjyfHhkMI4NtcHx4i/KTa9I+6TJWXfyhr6MAHl45LzDYXFZWfiFwuWIJH/Gu3LC9aPO1mXjseqKkMyvI0jWSDspEkdjd6ckV8ozsrSx7OTDxFjjCygRi6vRdV06uu7946P+5g60nP4qgJHbMAJuHjJrO4eagCPqSBy/y85Y5L7576eCQphR75+uI6WqSnifJe4d94uWoXtzp2/nVPpk6FtlmsLL8PZLsopudMCvqbVR/uX76+Fq7LCcsJeBjui8fa38h6+/8TIz3pSUO/J8V2c4V32gWhfv6wHleJLrdIwnJiImNC3cGOwxXeqfw974IB56JQ8DHiqY4lyBO7ol1EQJu497V4RecIxO8YLxykUz24JmYuwIcdyeD3/hfMOj8z47cMbqDfH8GBGMu/jtK0sYZlJEsQAAC7RGwv4iYQ9LfbK9oWae8qqQfRurH7GzMfWWngufkvSp59PYa+/OrLdPz6msPoYUup3dL7Nly2UgeAhDIh4DXUO0dYSeVdZenl3LaUZUPdemxEfT7qL94ek4FbZIXr8b/TAvbgto+D+AJkYSDzr+JNPIsBLpLwEbAqAMJ+ek1HITJBGI5vjphcnLl/Oo9029q0SmIXVq2GfaK0Bg97E+AAAQgMImARwK+FEHveBsqYTKBe0bc7vqAyUnm/6s9mP04giDWsWq9QK7NYHeadfI7716Xhzn/NmuUtCGQPwF7Ygy98+jD+Re71Rx6h8s8/b3I9Y+2WqoFEvfq/jdEmvuuC/CCBfIf8pHvBhaKw0NmjrggAIHOEvDugLr6ctb9J3WWVJiC3Wm4VmIWw0Wu2aV2MTu7NpfkU40WKWiMZ7wCv80QeqeDt/oRIAABCMwjsFNgPfzbeQlyXe8MzHzUJ76oBLbunHI7AMQLYtoM445aRpXZ5HOzNgtD2hCAQDEE/DLWRNcsfzbH49Vzq4wNIx0Z7JHkbIOH/GNZPsuFsM7/9uh2l5apOQ918jzv3mKGglrmTvIQ6DsB64p5+qTOdW8FJMwn8L7A3Ed1lPI47/mlHN6xgaSYjm5GhV/k812VSxHvxtDH/3qFLwECEIDAPALWFYvozWnPWJcR5hPwKG3oU21dJ2+dn3TaOx4a4fCeacJX93fv/187LY6JqWEATMTCjxCAQGQCGACRAc+I/ouBjS/3f+dIyuYF8MkZzvePjAS7ULzbjMpJeQlUFALWAAAgAElEQVQDICVt0oIABEYEMABGJNJ/PiaCAeD+7cHpi7Jyil5dGnqP6ajzbvp5tCQvxMglYADkUhPkAwL9IoAB0G59exS6aX+2/Pn92y2S9KoW3Pkuh7D8f3eyXx8chfrUtuFMSB8DYAIUfoIABKITwACIjnhmAq+OYAD8emaKkS/a+lje+bb5v/fY7yvJbhhzDRgAudYM+YJAtwlgALRbv3eM5B54yzaKlUvn760oh0raOqcFETMqBANgBhwuQQAC0QhgAERDWzniz0Z4afb5MkmD3fq2+abvtK+QdIgku1ssKWAAlFRb5BUC3SGAAdB+XW4boe/8RspivTJCAeoYExcOz70v1QEOBkBKaSUtCEBgRAADYESivc9bSfpL4D7UzuWSbHH3av8YDg2qGABXSzqgpEMQpsgYBsAUMPwMAQhEJYABEBVv5ch9ml+VPq/OPd6GHzU8SdINETI+r5DuMA8bzPPfNWrp0kWOAZCONSlBAAIrCGAArGDR5jd31vP6vbrX7Xo/WvAhEqGHLaoU8OeSHh6tVO1EjAHQDndShUDfCWAA5CEBt5R0ZWAj4IexinY7Sd5rWKXDDnWPpxneL2mtWIVqMV4MgBbhkzQEekwAAyCfyg/tGtij8+uELt6qkr6SuPP3Xn67TexqwADoas1SLgjkTQADIJ/6eVmEfvVxoYv39giZnDVK4Ln+JKsZQ4OqEV+XDIA1Je0o6QhJv5R0VWJ5mSVLfbhmq/8CSadK+k9JW9SQwxxuXU+SdxUdOzzYxAt9/yjp+4PRvwMl+XCxksIqg7w/TdKHJHn68tLhUK/bxmcGI6nbDxYyr9FigTAAWoS/LOl7RNCVr1+WRqN/LciplOj1usmlcKMMF/JwVwyAnTM++TGV3OaWjmXrUwX4xvAc6D5DXx7zGH55UKZNC2jb20j6cQWdea6kHVoqDwZAS+CnJBt6at3n3gQJG0j6cwVhntd4q1x3Oo8NkusyIindALDy/mAi2agiP9yzsqHut+itMm0Odof67Zry4wXI0bc5NeC1xwLbo98nafUGaS7yKAbAItTiPfPhmu1gnq6zj5zGwUKSat7/zA5t76sKvnQDgM5/5Q53XsNs47o9Zd63qlAmus/D36ctqPR82mjwOc4A5X7tguWxTHg/eMqAAZCS9vy0/q2B7EzTKZ5WaxReESFTkzLreb7GmW1U0nYeLtkAeHEi2ZgkL/xW3/D4TctzzstbmOfGm9SjRwtz0hk+f6Spb5QXLIcU8X8MgIhwF4h6s4btYVJbajSa7v3+XogzKeKQv3kIsFRXvgvU85JHSjUAvMXEQ0wh5YC44vN83RLpa+8fj0aE8CIa1eFJDTzuTE8J0B7+JGndGuk2uRUDoAm98M+6Pi4KIEPjetSLahcKzsy3AmdmPGOj78dI8urxvoZSDYBUI0MjOeEzjHHg9QBend52COX+1Kd/puowZzHzm1YoGX3JrIQCXsMACAgzUFRfCyhHlkevLVkoeDtXKIGeFs+JPe/8XTGlGgDHJ5CPaXLD783aZtveNO1PJOSbznMW0nBhH3pHwPbgl6IUAQMgBeV6aRwcUI6sJ79TL/mb7vZw/B8CZ2S50v7J4PheexXseyjVALgssnwslxf+b9bpj/PbteVG52184/lp+v2glsvj5E8OWKaLE5UHAyAR6BrJ7BJQjtyuzq+R9s23vitwJpY38N8OXPtudHNq/f5SogHgKZvldcr/5TDZv+Um59X7IeXFDsPaDucELJN1QgoHQRgAbUvNyuk/IKAcuY15nY2PHK4c7h9gJeusxm1vWBtXzk33byzRALBymlXHXMubz34tN6uQ8+WWtU+2XB4njwFw03RmBlVRdBasW0P3CbX629CLEMY7A1sjOTvwaENyQle2rfoUwYbceN3yvRwebU8BhN7u1LUpgEtSNGBJjAAkAl0zGbvzDqlP7ZWyUnhE4ISXF+JNlXLRr5tKNQBYBBi2kS5vKzH/ZxFgeB3DIkBGAEJJVcj1JNYjlX1LfCOiAWBvgjlsPwpVSaHiKdUA8P7SmJ0Uccfhm8s2wI8Fkp9rM/EhEnJdw0tDKZc58TACMAdQS5c9pRVS/72xSjlCCvDyzHtI4/ZVMtHDe0o1ALz3GkdAYRvq8nYT43/7qc8hhHIEdEgOhRkOp/sUxqZ1hiOgTCq0xWy8JYAcjcuhR6fmhroHcownMO/7M+am3t8bSjUAXGN+U5lX91zPh9FZmfndOLSh/Hi73PoZqQ4vbmzq3fBFCcvDCEBC2DWSCj26+vF5aT+mYUOcpeQ91EeYTqBkA8ClaurPfZbscC2c8XBlhocBeTvp6QvqHh8Z/k/Tm1VrV/ZasDyW9bmKOnCpMAACAw0U3fMayNAknekjtGeGzwVOcJQJD/3j7Gcm+uBbPtyoUwYfBxz6GMuR/PAZxgDwVI0X+OYYfNT4STX1j0823DbHwgynAt6wwEiA25DbUsqAAZCSdvW0nlCzPczTkz6jYmq4iyRb0/MiWeT6M6emyoURgdJHAEbleP7Q69QicsIzcdqfZeszg1GaO48qKdNPd3z/IcmjFPNk4dhBmXxIWe7hiZJ+VqE850nauaXCYAC0BH5Osg+sIDfz2sn49V/OSu+/Aic2SviEWYly7WYCXTEAXKC1hsrsSEmeb05xkuRI3vi8qfP0276H1d2ut7xZysr44tGA3QejFccNjUm/mHhP/I8GB/68TVLb2xfrUvSZB0+X9BFJVsJXSfLhRfaEesTgc6eW12RgANSt0TT33z1wn/y7adm2i0CvOg2tPL0Q5sHTEuX3JQS6ZAAsKRj/QAACWRPAAMizeuwmP2Sf7Kn4icEWaMiERnGlXswysXCF/IgBUEhFkU0IdIwABkCeFeot86O+NMTnVM+SHmoLkcB4HB7iyn3OMadqxwDIqTbICwT6QwADIM+6Xjtwv+y1NSuF9SIt/nvfSinxwywCGACz6HANAhCIRQADIBbZZvGuHtgA+Ouk7MRw4nKDpE0mJcZvUwlgAExFwwUIQCAiAQyAiHAbRL1aYAPgukl58Sr98aH7EN+9spVQjwAGQD1e3A0BCIQhgAEQhmPoWLybKkR/PIrDu0+WhA0l+W19dEOoz62WpMI/VQhgAFShxD0QgEBoAhgAoYmGie+2gfvmlRYBvjxwAjYgZnobCsOlk7FgAHSyWikUBLIngAGQZxX5fItQL+WOxyeALglHBU7AibxsSQr8U5UABkBVUtwHAQiEJIABEJJmuLjuGrh/XuIIyN6pLgucgM/k5rjfxQQAA2AxbjwFAQg0I4AB0IxfrKftwTPkCMCvxjP6sMCRO6Ms/hsnXO87BkA9XtwNAQiEIYABEIZj6Fh8ymVIA+DU8QzuHThyZ/Rp4wnwvRYBDIBauLgZAhAIRAADIBDIwNFsF7iPPmY8f18PHLm3GKwxngDfaxHAAKiFi5shAIFABDAAAoEMHM2LAvfRnxjlzx6G7Ko35PDC0aPI+VyIAAbAQth4CAIQaEgAA6AhwEiP7xu4jz5klM/QiwtsSHhLIWFxAnbTGNIgW3fxrPAkBCDQIwK3Cax7vBic0JyAj48O2Se8cZSlHQNH7EzeYxQ5nwsRsJOGkJW92UK54CEIQKBvBDYPrHsu7hvASOX9RuB6efEonwcFjnjJ9oJRInzWInBu4DrZvlbq3AwBCPSVQOgXwnP6CjJwuX8TuE944ih/oY///dgoYj4XJnBy4Mo+fOGc8CAEINAnAkcG1j0n9QlepLJ6nV7oaeGbR4X/FLjCd40EoU/Rfjxwnfjkp437BJCyQgACtQlsKsm6IuT0o+euCc0I3DtwnXiR+d936W0QOGILziOblZWnJb0hQr18HrIQgAAEphDw6v8vRtA79jFDaEbg2YHr5eZzAB4cOGKfJrh2s7LytKRtAtfLyKLfA7oQgAAEJhDYK5LOedyEtPipHoF9AtfNd0fJPzNwxL8YRcxnIwI2okIPxdkIuFESRkCjquFhCHSOwJ5D3TB6UQj16XnrNTtHK32B7FY/VJ04ng+OiuD5+pARf3kUMZ+NCZwYuG7G69nTAfdsnEMigAAESibgdUExToEd6ZpvlQwno7yH3hX276OyvTVwJ/OeUcR8NiYQ2jgbNcrRp63zz0p6niQv/lmrcY6JAAIQyJmA27hXf3tbsNt+6JXlI90y+sQhXHNp2ChwH+26efwoW4cFjpzh5RHZ5p+ueK+pGDUmPmGBDCADpciAdZcXmROaEXhGhD5gw1GWPEQTUqD+dRQxn0EIeKg+ZP0QFzyRAWQghQzYnwChOYHQo/QXjWfpjMAdzCPGI+d7YwKPDlw/KRo+adDBIAPIAH1BY/X/9wi+F7gPWHIM8M8DR75FmDITyxiB0F4BUc4oZ2QAGYgpA17ATGhO4PYRpoFvPgTI2bOf5pCCwCFAzSt9eQwPkxT6eOCQdU5cYdsQPOFZsgxYV/H2v1yLL/Z/aAdAliv7mLk52CNQSGG7eXHBzSnwJQSBzwSup5B1Tlxh2xA84VmyDHwqhMIjjr8TeF9gve+FmbceZ3t54ASWRD6eEN8bEVhP0oWB66pkJUPe6SSRgfxkwAvMWPnfSNXf/LBdM58XWOf/6ObYh19Ce5vzqUWEOARiDAehRPNTotQJdVKqDNizLCEMAU/9hpaDdy3PWmgDYLXlCfB/UAKuwNBCQXwwRQaQgaYy8Pagmo7IDoig65+6HOuVgRNZZ3kC/B+UgA2s4wPXWdOGz/N0HshAv2XAOomXv6CqXr8MrOft9XGl/vmSwIncLiwDYltGYFVJXwlcZyjvfitv6p/6byoDx2EALNPUzf4NfUqv63fiuQwXBO5M7tKs3Dw9h8A7A9dX04bP83QeyAAyYBl42xzdxeXqBA6JoOdfPyn53wRO6P6TEuG3IAS2C1xXKG4UNzKADISUARYBNlf1Xkj/5wi6/n6TsnZq4ISWOBmYlCC/LUTAW2tiCEXIxk9cdCbIQL9l4E+SvGWZsDiBbQP3yW6TftGfGELPJ/toWUJ4Ap+OIBQo634ra+qf+o8hAz5hlrA4gWMj6HrvKJgYPhY4sb0mpsKPTQhshStgtj4GbqcxFD9xYlBYBnAFvLi231jSjRHauhcVTgwHB07s/RNT4ccmBDgMCMVK54oMlCQDHAa0mMZ/R+D+2DLzO0n2Kjgx7Bo4QW8HIYQjwHHAKP6SFD95RV5HMsCBQPX6gXUlXRa4P3ZdHDgrG08LnKC3FRLCETgqcP2MGiefKGpkABmIKQNHhFODvYhpj0i6/l6z6G0RIVFWgc4iXv2aT1b06U0xGylxwxcZQAZiyIB1FwcDVdP3a0gK7ZPHdXrKvOTXjrDAjK2A86hXu/7KyJ2/z4Gwlb6DJFuJnORYrV64CwKlEnAbd1vfUdKRkkKfBbPckHh5qaAS5/ulkXT9S6qU4+zAiU/0OFQlI9yzhIAX0ixvUKH+99SCV5wSIACB/hLYRNIXIuqZie5n+4t7YslvJemcCHVwtaTbTExx2Y+hBcC+BQjNCHhkJoZ17i0mezbLGk9DAAIdIuAV4ntH2n7mA2jW7BCrGEXZLULn7xfFj1TN7H8GzsClklapmjj3TSTgaZRQb/vj8dD5T8TNjxDoPQEbAeO6ItT3x/ae7HQAXvlv74mhWI/HU9kt/7MjZGCq44HpLLgyRuANEerEw/4ECEAAApMIeCTgSxH0jg0LwmQCb4rA20bACZOTm/zrnSJk4v9OTopfKxII7aHR0wnM+VeEz20Q6CmBTSNMPR7aU5bziu1+98oIfa8NgGfMS3z59d8Hzoi91xEWJxDa+9/hi2eFJyEAgR4R8O6A8aHkpt+/0yN2dYr6qcCcR/X0W0mr1smI7w192IwXm21UNxPcfzOBcwMLh7f6ESAAAQjMI7BTYN3jFe6EpQS2jrD9fmQAvGxpUtX+i7Hn3G6GCYsRuCRwI9xssWzwFAQg0DMCmwfWPRf3jN+84q4u6ceBGY86//MleVth7RC60p2hk2rnggdGBK4NLCA4+RmR5RMCEJhFwLpi1KGE+LQuI6wg4PVxIbhOisNbChcOnjuYFOmiv/lYSC8qIdQnYHaLcp/03NTToOpnjScgAIEOE7CumKRDFv3NuoxwEwG/aF8TmO+oXv7Y1OfCeyNk7K3U/EIEMAAWwsZDEIBAQwIYAA0BTnncC/NOjdDHjgyAV01Jt/LPoU8GdMbs5OCWlXPAjSMCGAAjEnxCAAIpCWAAxKEdc+jfCy19oFCj4Aguj2Ch7NIoV/18GAOgn/VOqSHQNgEMgPA18JAI/hVGb/7+fF6oLH8yggHwU0kWKkJ1AhgA1VlxJwQgEI4ABkA4lo5pHUm/jtCvjgyAH4R0vb9tpIz+n7BMOx8bBkDnq5gCQiBLAhgAYavlM5H61JEB8JiQ2fUewssiZPiUkJnsQVwYAD2oZIoIgQwJYACEq5RXR+hLRx2/Pz8XLqsrYnpPpEw/ZUUSfJtDAANgDiAuQwACUQhgAITB+sjI8/7/K+nuYbK6NBYfIzhuZYT6/sOQcxVLs9y5/zAAOlelFAgCRRDAAGheTXeNeMzvqD9+bfNsTo/he5GMgBdMT5IrYwQwAMZg8BUCEEhGAAOgGep1I7r6HXX+Xlhvl8LRwgsjGQAXSsIt7fxqwwCYz4g7IACB8AQwABZnupqkr0XqO0edvw/a8/RC1LBmxCGMQ6LmvBuRYwB0ox4pBQRKI4ABsFiNmdsHI3f+NgLevlj26j/1pkiFsQXziPrZ6dUTGAC9qm4KC4FsCGAALFYVB0TqL0dv/v48s6m//zpFW0/S1ZEK5TmMhY4trFOAgu/FACi48sg6BAomgAFQv/LeGKmfHO/8r5f00PpZa/bEuyMW7OBmWev0010yADydtKOkIyT9UtJVEWVqvMHw/abdPDdIumB4EMl/StqisJbjF5FXSjpW0u+Gp6l5LdH3JR3YhlJsyG+VQd597sqHJP186HfFbcJtw05jtg/h171BHjEA6sHzITwpdI3bbvKwkSTvN4xRQHdyT0peojIS7IoBsLOk8yLJTwyZ7EOclq1PDeYr75R5U/AhYp6GvKKC/HxF0maZl8fZe7ykn1Qoz7lDo7mNImEAVKfurXgpdMZpbR6q97aIhfSbyYbVeffmztINACvvFAtiUjS+rqbh88O3yrRF+a3/xJp6xweZ5exsbE9JXv9UR57eF3u714T6xwCYAGXCTymG/S0rl0iyX4HWwvqRh22/04KQtwazYsKlGwB0/vUUfZ1OIeS9fru+b0WZTHWbTyX1G88i5bxO0uNSZbRGOq9bsDxm8NEa6YS4FQNgNkXz2b9BfdaRa/cDni5qPewTucBea0BYQaBkA+AlkWWlTgPi3vkd6W9annNeIfU3ffPceJN6u0iSRxByCVtL8jqMJmVK6UANA2C65Nj5zsca1mUdOchmnZwXcnleqk7m6967x3TuvbtSqgFgL1heoFW37rm/XWa5tD2PRtQdJp8kO7n4GnFnemqA9vAnSW5bKQIGwGTKdmB3XIC6nCSvk347IbeR8X+JXHh3es+fzL53v5ZqALwisoxMaij81tx48HoAr05vO4R6u7o2E4+jjw3YHl6aqHIwAFYG7UN3fhywLufprLMl3XHlbLT7iwXDVsm8zDe57r2OT223mFmkXqoB8PXI8tFEtnh2dtt9eMuSv6okD9+HqqfntFweJ/+OgOU5JlF5MACWgvaakpByOU++vS4n26263mpzTUChngTD2w777imwVAPgssiyMUle+C1Mp7nrUr2X/L9NA8vOQclLsHKCJwcsk1eDpwgYACsou034pTSVjvH017Yrks/z2+sTALm050ZAiQaA14mkaiikE561Vza3GfymFbJeD2uzMMO0zwlYJusE75CIHTAApNtIOjxg3VWV61fHrtwQ8Xsl5I8SwPFIQF+nA0o0AKycqgo69+XHar8QyqFBHCHnyy1fn2yQl1CPYgBI1mUlhYdJ8hx8ah2Vw4hV5XraMsFUgCvAwy99XBhYogFg4fHITeqGQ3phmNvdbpvB04sh6zIHhcoUQDkGgI/yfYMk+5IIKYdV4vqEJI+8FBVS+UB2Z7hvUWSaZ7ZUA+D4FhpPlQbGPfOVWtteAVkEOLuOWATYXK9Oi+E+kk5vSXd54bQ9pxYXbLF8LSG09/boBMFSDQC/RdLZlseAbYBx1G/IdQ0vi5PFlWLt0xoAT2fvLcnbRtvQW9+StPZKNVDQD/bj/4eE8M6QdM+C+Cya1VINgHVwBNSKImmqvOyqNoeAI6DJHRGOgMJLp9ec+DTGpm1n0ee9pb7ozn9UJd6y99eEIP8i6dmjxDv6WaoB4OrAFXB7SmURZZSbK+BDG+oS79n2+SW5BHc0Tb0bvjBhYbo+AuATbj3nHlrH1ml73+5K5z+SyzY8wP13h6cEQgtn6gUmHAZUhhFwZYaHAXk76aLzsV40nONhQD4JsE4HMX6vvSOmDF01ADw6+R+RD7Ybr7dp3935Oy+dC00t92nAZv3+i4F3QlvYXQulGwBe1NL0UJdZ9c61xTuUETvP+7ft/W9au/UbvE8JHeW1yqePA87i5LQphbL/lLojAR9oYYFY1wwA6yK7Uc7hjJIvSbKB28ngBRUpD0sYVwpHDzqcO3eIaukGwKgqdpF0fk1FPl6vfK/XCVbhZdn6tKQ7jSop008rbu/+8SjFvHJ5hfzmmZZjPFtPkPTTCuX5vaSdxh9M+L0rBoDlZ2dJZ1XgPU++Qlz3tIP7yE4He1D6WUvAvTbArhu9naj00BUDwPWw1lCZHSHp15Kubkk+QjTiEuOwLPlt/zRJb8lwyH9eW/VowG7DHUfnDfdpXyzph4N5VO/1b3v74rz8L7/uQ5eeLskjpmcODRy3CXdU9j63YyKPf8vzNfq/dAPAp/Z5i3rKxenz9MLbS9znPxKIup93lWQLdh6UWNftpbB0D4JdMgDqyg/3QwAC7REo1QDYWJKPgfZhOrH6lrrx3jDITxHufUOLmw/2aHvOxedw/3OhlhcGQGiJJD4IQKAKgZIMAA/zbyfpKwusr6jbmde934ZI6S+iVeRl6j3e0+sTrOqCC33/TyR5LtrCUkrAACilpsgnBLpFoAQD4EGS3pn4mN46/ZLPgHD/1/vw4EyMAFeenWkcKMmjE7kHDIDca4j8QaCbBHI1ANyXHDBYT/TbDF4qZxkD3uaXkx+K1qXUllDb0wHjFebO1Yd07J7xSmgMgNbFlgxAoJcEcjEAbjd0+GafIm2uKRvvO2Z9t85+62ChrQ8VIiwj4LfuHCvR+3JPGXiF2kfSQyV5hW4OAQMgh1ogDxDoH4G2DAC7lX+WJK+Y9/otL6Cb1eHmdM2noG7bP1GpV2LvDqiyB7bNivVWQu8p9rGQ20har14Rg92NARAMJRFBAAI1CMQ2ALwXfpPh4j175vv8YL/+2QV19sv7J3utvEcNvr2+1X4CSjsy1nuofWSjvXLZm9cOgykEO/S4v6S7DLaeeKjqtoFrFQMgMFCigwAEKhEIbQC4w7TutA51R293zcs70RL/dznsqIoh/0piteImW4C4iU3bCNyoCRCAAATmEYhhAJTYwc/K8y8HWw8fMg8k12cT8AFCKU8RnFWhXb+GATBbFrkKAQjcRAADYPrLmdeMefthZ/35p24E3tpxbkeGhHI2IjAAUks26UGgTAIYAJMNgB8X6Ha6CAn06s+vYQREnRfDACiiKZBJCLROAANgqQFw1eAI4dcy1x9XLi10PsDhWgyBKIYABkBc+SV2CHSFAAbACgPgSEl370rFllCOLSV5qCXn4fQS84YBUIL0k0cItE8AA0Dy1r5Ht18V/cyBdwl4H/41GALBDCEfkUmAAAQgMI+AdUWJLzkh8mxndT6OmRemeVKS4Ppmkk7osTCGEOhRHGZJgAAEIDCPwOY91Ll/GJxZs+vgrIE15sHhenoCTyvcU9SoE27zc/v01UaKEIBAgQR26pEB8OfBSPOebOvLX0q979L++r0is82OtNS0D8+/iskhBCCQAQEvfCtVz1XN91nDN/61MuBNFmoQuOPwSMireyCkVYW5yn3XSdq4BmduhQAE+kfAh7ZZV1TRKSXec8ZgNHlntvSVL9j/IOndkjAEqjdWH7pBgAAEIDCJgBe+fbGDnb9HjQ+VZKdzhI4R8IiA53C8iKNEizR1nvfoWP1THAhAIAyBvTumQ/22v7uk24fBQyw5E/AagRdJ+l7HhDi0gWBf1hgBOUsyeYNAegJ+ibJuCK1vUsfn0wYPkHTf9AhJMRcCD5D0Xkl/6YBAx2pAR7EmIBdxJR8QaI2A1wV9oXA9eY6kAxnib02Gsk34VpK2lXSYpCsKF/IYhoAX+3h3gLcIeu/v2tnWJBmDAARCEHAbd1vfYdj2S1zw5zx/azj1a8+xBAjMJeApAvsT8MiAh4lidKjECVdkABlABsLKwA2Sfjhc9P0sSXg1ndvdccM8AraCXynpU5LOwyDAIEIGkAFkIAsZuGBw7O5XBwp8X0lPkLTuPGXOdQg0JXBXSc8d7A99y3ArjEcJ/oZCyEIh8EYV9o0KnvBsWwasW71z6zuSPiLpNZIeL2m9poqc5yEQioDny+4j6alDr1Fvk/RxSV+RdOpgHu03ki6UdCkLDjEUMBaRAWTgZhn4k6TjBguNPynpncPD3V442KX1FEn3wud+qC6KePpA4CEd2aLT9lsH6fPmiwzElwFvJ3xYHxQzZYRAKgIf4O3i5rcLlHh8JQ5jGC8qA/+TSimSDgT6QsDerHxy1aKNkudghwwgA7Fl4GJJ9s5KgAAEAhPwFhgWJqLEYytx4kfGFpEB6yb7XSFAAAKRCOzHKACjIMgAMpChDLw5ks4jWghAYEhgFUnHZNj4F3lj4BneNJGBbsjA8ZJWRUtDAAJxCbiReRsiihMGyAAykIsMeMvfanFVH7FDAAKH0Plj/CADyECGMvB21IENn8gAABVMSURBVDMEIBCPwHYZNvpc3kDIB2/DyED7MvDMeOqPmCHQXwJ2kWnvWig5GCADyECuMnCRpA36q6YpOQTiEPg0nT/GDzKADBQgAz5+nQABCAQisBX7/1H8BSj+XN9KyVfaERP7A3hEIN1HNBDoPYGTUf4YAMgAMlCQDJzYe60NAAgEILB1QY2eN620b1rwhnfOMsAoQIAOgCj6TeAoDADe/JABZKBAGTii36qb0kOgGYENJd1QYMPP+a2EvPHWjAykkQHrLnYENOsDeLrHBF4ZufO/TtLhkraXtLmkdXvMmqJDoA8E3Mbd1ncYtn3rgJgG0cv7AJUyQiAGAS+kidU4Py9p4xiZJk4IQKAYAtYBMacZv1UMCTIKgYwIrC0phnV+o6Q9MionWYEABNonsJck64bQLxx/lbRm+8UjBxAoi8A2ERqjGzedf1lyQG4hkIrA3pF0zmNTFYB0INAVAm+I0Bg97E+AAAQgMInALSR9MYLesWFBgAAEahD4WOCG6OkE5vxrVAC3QqCHBP5RkoftQ04FHNpDjhQZAo0IhPb+59X+BAhAAALzCBwZ2AD4zrwEuQ4BCCwlcG7gRuitfgQIQAAC8wjsGFj3nDMvQa5DAAJLCVwSuBFuujR6/oMABCAwkYD9BIScAvARwQQIQKAGgdDzcOvUSJtbIQCB/hK4dWAD4Jr+oqTkEFiMgI/UDGmFe4UvAQIQgMA8AtYVIXWPdRkBAhCoQQADoAYsboUABIIRwAAIhpKIILAYAQyAxbjxFAQg0IwABkAzfjwNgcYEMAAaIyQCCEBgAQIYAAtA4xEIhCSAARCSJnFBAAJVCWAAVCXFfRCIRAADIBJYooUABGYSwACYiYeLEIhPAAMgPmNSgAAEViaAAbAyE36BQFICGABJcZMYBCAwJIABgChAoGUCGAAtVwDJQ6CnBDAAelrxFDsfAhgA+dQFOYFAnwhgAPSptilrlgQwALKsFjIFgc4TwADofBVTwNwJYADkXkPkDwLdJIAB0M16pVQFEcAAKKiyyCoEOkQAA6BDlUlRyiSAAVBmvZFrCJROAAOg9Bok/8UT6JIBsJaknSQdIelXkq4KfNpYyJPLuhjXjZIukHSapLdIum9hrWN9SbtK+qqkcyX5eNkLJf1A0oGSHlZYeVYZ5H1bSR+W9AtJlw3bhNvGZyXtIGmNFsuEAdAifJKGgAl0xQDYRdL5dPhBj1dtaqRYtj4t6c6ZN7VbDuTmTZKuqCA/XxmUabPMy+PsPV7STyqUx4bOji2VBwOgJfAkC4ERgdINACvvD1VQdE07M55f/Oz2P0p6+EjgMvtcT9KJNeXncklPyawc49nZU5JHY+rI7PskrT4eSYLvGAAJIJMEBGYRKN0A+GBNRVdHKXJvvU5kFq8rM5wS8PC3pytm5XvateskPW5Ww2rp2usWLI/L+dHEecYASAyc5CCwnEDJBsBLGii7aYqd3xfrEKtw+03Lc87LZb/pyNFFkjyCkEvYWtINDdvECxIWBgMgIWySgsAkAqUaAOsOF2hV6Xi4J16nXpftHpOEsIXfvECx7jD5pLIe0kLeJyXpzvTUhp2/y/cnSW5bKQIGQArKpAGBGQRKNQBeEUDZTVLo/BbXWPB6AK9Obzt8LJD8XCvp1m0XRtJjA5XH8v/SROXBAEgEmmQgMI1AqQbA1wMqPDr9uJ3+cr5tLwhcVZKH75fna9H/nzOtcSX8/R0By3NMonxjACQCTTIQmEagVAPAe5oXVdg81y4777VvM2waWHYOarMww7RPDlimSxKVBwMgEWiSgcA0AiUaAGsGVHYYA+mNgf2nCWOi3716P2S9H5Yo37OSOSdgmawTUjgIwgCYVaNcg0ACAiUaAFZOIRU4caXluV8CuZ6VRMj5csvOJ2clluja2QHbBAZAokojGQi0TaBEA8DMLg2o8DAA0hoAr2xZ6O3JL2SdMwWwWIUyArAYN56CQDACpRoAxwdW4iE7BOKa3cFuFUx6F4so9CLAZy+WjaBPvT1ge7C74xQBAyAFZdKAwAwCpRoAfoukoy2PAdsAZzTGBpdCTmuwDbBBRfAoBEoiUKoBsA6OgIo0gOyqNocQyhHQO3MojCS/TZ8SwCjGEVAmFUo2IJCCQKkGgNngCrisEYDcXAH7mNwmo0j2JeAjhHMJj8EVcC5VQT4gUAaBkg0AE+YwoGadWJMOsM6zOR4G5O2kpy9oBFyf6WFAdrVcp17G77V3xJSBNQApaZMWBCYQKN0A4DjgxRX+uPKP+T3n44D9Bv+dmp2mjwN+2oS2lMtPr1/gnIMPSHJbShkwAFLSJi0ITCBQugEwKtIuks6vqchjdnrELVm2Pj0YpbnTqJIy/XTHt68kj1LMqze7yd0803KMZ+sJkn5aoTy/l7TT+IMJv2MAJIRNUhCYRKArBoDLttZQmR0h6deSrq6gAOcpfK7P7xRHjCxLfts/TdJbJHmhXUnBowG7SfqapPMkXSfpYkk/lOS9/m1vX6zL0ocuPV3SoZLOHBo4bhNnSTp88LljIo9/0/KNATCNDL9DIBGBLhkAiZCRDAQgEIAABkAAiEQBgSYEMACa0ONZCEBgUQIYAIuS4zkIBCKAARAIJNFAAAK1CGAA1MLFzRAITwADIDxTYoQABOYTwACYz4g7IBCVAAZAVLxEDgEITCGAATAFDD9DIBUBDIBUpEkHAhAYJ4ABME6D7xBogQAGQAvQSRICEPj7+QWjLaQhPq3LCBCAQA0CGAA1YHErBCAQjAAjAMFQEhEEFiOAAbAYN56CAASaEcAAaMaPpyHQmAAGQGOERAABCCxAAANgAWg8AoGQBDAAQtIkLghAoCoBDICqpLgPApEIYABEAku0EIDATAIYADPxcBEC8QlgAMRnTAoQgMDKBDAAVmbCLxBISgADICluEoMABIYEMAAQBQi0TOCvgY/MXbfl8pA8BCBQBoHbBNY915RRbHIJgXwI+LzzEE44RnFslk/RyAkEIJAxgXsF1j1/zrisZA0CWRI4J3Aj3CHLUpIpCEAgNwI7B9Y9Z+VWQPIDgdwJfDdwIzw89wKTPwhAIAsCRwbWPSdlUSoyAYGCCHw0cCO8TtImBZWfrEIAAukJbCrJumI0dRji88Ppi0GKECibwF6BG6Eb8lFlIyH3EIBARAJe/f+lCHpnj4h5JmoIdJLAEyI0RBsBe3aSFoWCAASaEtg7ks7ZpmnGeB4CfSOwlqRrIzTIGzEC+iZKlBcCMwn4zd8jjtYNIYb8x+PwFsA1Z6bORQhAYCKBb0dokKPG6emAjSemyo8QgEBfCFgHfCGinvlGX0BSTgiEJrB7xIZpQ8CLfbw7YHtJm0taO3QBiA8CEMiKgNu427q3Bbvth17wN3rBGH2+IqvSkxkIFERgvQQNdNRQ+Qw//AlTmPZZBmxc3LEgfUtWIZAdgZjDc31WTpSdzhkZiCsDn89Om5IhCBRG4OGRpwFQgnGVIHzh21cZeGRhupbsQiBLAidgBARfndxXpUy5MUhSyMDXs9SkZAoCBRJ4tKTQxwOnUAKkQWeDDPRPBqyrHlGgniXLEMiWwMcZBWAUABlABgqQAVz/ZtuNkLFSCWwg6dICGj9vfP1746POqfORDPgYc+9eIkAAAoEJPJWpAN4AMQKRgUxlwEP/zwis84gOAhAYI3BIpo1/9AbAJ2+DyEA/ZeCgMT3FVwhAIAKBWw4W2ByHEcBbIDKADGQkA8dIWj2CviNKCEBgGQEfFPTdjBo/b3z9fOOj3ql3y8DpktZZpqP4FwIQiEjALjbd8FDCMEAGkIG2ZOA0SXeIqOeIGgIQmELAB3scixGAEYQMIAMtyMDxktadopv4GQIQSEDAawLeye4AOoAWOoC23jpJt90RD6/2fxtz/gm0O0lAoCKBZ+InACMAIwAZiCwD3ue/bUWdxG0QgEBCAreX9H5GA+gEIncCvIG3+wbeBn+/9dsb6foJ9RlJQQACCxDw2QEcINQ/Jd1Gx0Ca3Zezb+LbfwEtzCMQaJnAoyR9QdJ1vBEyKoAMIAM1ZMA64yg6/pY1OMlDIAAB++bebTgqcG0NJcDbXfff7qhj6ngkA9YN35K0qyRvMyZAAAIdI2AnQk+QtJekj0g6RdJvhwsIGSmgMxh1Bnx2Uxbcxn2omNu8nYkdOtQFj5e0Zsd0HcWBAAQg0EsCoTvwXkKk0BCAAAQgAIHSCGAAlFZj5BcCEIAABCAQgAAGQACIRAEBCEAAAhAojQAGQGk1Rn4hAAEIQAACAQhgAASASBQQgAAEIACB0ghgAJRWY+QXAhCAAAQgEIAABkAAiEQBAQhAAAIQKI0ABkBpNUZ+IQABCEAAAgEIYAAEgEgUEIAABCAAgdIIYACUVmPkFwIQgAAEIBCAAAZAAIhEAQEIQAACECiNAAZAaTVGfiEAAQhAAAIBCGAABIBIFBCAAAQgAIHSCGAAlFZj5BcCEIAABCAQgAAGQACIRAEBCEAAAhAojQAGQGk1Rn4hAAEIQAACAQhgAASASBQQgAAEIACB0ghgAJRWY+QXAhCAAAQgEIAABkAAiEQBAQhAAAIQKI0ABkBpNUZ+IQABCEAAAgEIYAAEgEgUEIAABCAAgVIIrC5pW0mhDQDH6bgJEIAABCAAAQhkRODekg6QdGGEzn9kTFwq6f2SHphRuckKBCAAAQhAoJcEtpB0eMROf9T5L/88XtKDekmcQkMAAhCAAARaJLDZsOP/Wwud/8gYcNqflbRpixxIGgIQgAAEINALAreQtLuka1vs+EcGwOjzugH5fSWt2osaoJAQgAAEIACBxATuJulbGXX8IwNg9PldSRsnZkJyEIAABCAAgU4TeKqkKzLu/EdGwOWSntzpmqBwEIAABCAAgUQEni/Jw+yjTjb3zxskvSQRG5KBAAQgAAEIdJLAngV1/MsNE29L9JoFAgQgAAEIQAACNQj8R8Gd/8gYeFON8nIrBCAAAQhAoPcEXtiBzn9kBLy897UJAAhAAAIQgEAFAk+RdH2HDACvCXh6hXJzCwQgAAEIQKC3BO5RyGr/0dt91U/vDrh7b2uVgkMAAhCAAARmEFhF0gkdevNfbhx8B2dBM2qfSxCAAAQg0FsCJa/4X97ZT/v/Nb2tXQoOAQhAAAIQmEDAvv1zcu87rQNv+rvLuMmE8vMTBCAAAQhAoJcE2jjRr2lnvujzn+5lDVNoCEAAAhCAwDIC95N0Y4fn/pcbCj5F8AHLGPAvBCAAAQhAoHcEvtqjzn9kDHy5d7VMgSEAAQhAAAJjBLZM2Pl/X9I+g50Gj5W0uaS1h3/+7t98zfeMOunYn1uMceArBCAAAQhAoFcE3h65w/Vw+xGSvMiwavC9Rw4MAj8b0wg4uGqGuA8CEIAABCDQJQKrS/pTxE72bElbNQD2CEnnRMzfhZLMgAABCEAAAhDoFQG7x431hn2SpPUD0LyDpG9GzOe2AfJIFBCAAAQ6T+CWkp4r6VOSfinpqoiKOVbHRLzxOv0R229LsqyECo7LcY7i5xMWIxmwDrIusk6ybgopd6Hkl3ggUDyBZ0n6LUqYTmiODHjY/44RpH09SY57pPj5hMUkGThL0jMjyB9RQqCXBOwf/iAULx1PBRnwor0mc/7zGpjXBMReGDipU+G38oyNAyVZdxEgAIEGBOj8y1N+bXVY9iYYO3yugiHSVvlJN6+2ckBsYSR+CHSZgIf9UWowqCIDfjOvs9Vv0XZzL2SSNllDBrzQlQABCNQk4O1Rv6nR0Kp0EtzTXWPijJry1eT2HyKXGAEVZcDrllgY2KS18WwvCXhFLR02DKrKgL34pQr7Ipu0zRoy8OxUgkk6EOgKgcNqNLCqnQT3ddegsCvfVOGfkE0MgBoy8IlUgkk6EOgKgV/VaGB07N3t2KvW7SYJBd9rDarmi/tgdWZC2SQpCHSCwJUoWTqZGjKwTkKpd1p07DCoKgOXJ5RNkoJAJwhcgZKlk6khA+smlPpb18hX1U6C+7prUPwloWySFAQ6QcDuNVGKMKgqA5smlHofH1w1X9wHq18klE2SgkAnCLAIEMVZp/N8XEKpZxEgsllHNlkEmLBxklQ3CDyHtyzeMmvIANsA6ZTrdMop792uGyqZUkAgHQEcAaHQ6yjp76cTTf2ohmFSpwzc2z2Z924m6zICBCBQk4BP1UIpwqCKDOAKGDmpIicp77FMbltT53E7BCAwRsCnaqVstKRVLu8jx+Qm1tejkEfaY0UZ2D+WEBIvBPpCwEdqvrVig6PzLrfzDlF3fuPykb2xwiORQzr/ijLgkwA5DjhWSyTe3hF4BocDoXwrKN9zJK0XoXU4zt9VSD+EIUMc5Rqyv5bECYARGiBRQsCLaXywxicl2b0m3gLLVZQxO7lvBz6Bzae5nUjnjwE6QQasg7zP31v9rJtY8Ec/BQEIQKACgWdNUKihDIOTJG1QIQ/zbrmDpG9GzKcXuhIgAAEIQAACvSKwhqTLInauZzdcE+A5/5jD/i77rXpV4xQWAhCAAAQgMCTwwYgGgEcTvDDwc5LuVYO47/185Hw5b++vkSduhQAEIAABCHSKwH2HnXSoof9Z8fxwQG7fwXy+Xfnan79P9fOfv/s3X/M9s+IIdc2GyRadqkkKAwEIQAACEKhJ4LhEnW6ozjtEPMfWZMTtEIAABCAAgc4R2CrhKECIzjtEHF5fQIAABCAAAQj0nsAXezQKkMJjYe8FCgAQgAAEIFAGgc0kXdsDI+AaSZuUUSXkEgIQgAAEIJCGwBt6YADsmQYlqUAAAhCAAATKIWAvamd02Aj4nqTVyqkOcgoBCEAAAhBIR+Buki7uoBFwqaR/TIeRlCAAAQhAAALlEfAZ6jd2yAi4QdKTy6sGcgwBCEAAAhBIT+BlHTIAdkuPjxQhAAEIQAAC5RLYrwNGwJvLxU/OIQABCEAAAu0R8Kr5EI532ojjgPawkTIEIAABCECgfAKvKWxNgOf8dy8fOyWAAAQgAAEItE/gnyMfHRxqhOAKSV7ESIAABCAAAQhAIBCBTSWdlvGUwCl4+QtU00QDAQhAAAIQWEbAjnT2ycxtsN372oshTn6WVRb/QgACEIAABEITuKekwzMYDTgaBz+hq5b4IAABCEAAAvMJPFrSsYkNgb9J+ookjvSdXz/cAQEIQAACEIhK4AGS3ht5oeBlkt4j6X5RS0LkEIAABCAAAQjUJrCmpO0kfVjShQFGBv4o6UOSniXJcRMgAAEIQAACECiAwMaSnifpQElHSvKJfOdJ8uE81w///N2/+doRw3v/VZLXGRAgAIGOEvj/AfLYjMiMKjTMAAAAAElFTkSuQmCC;" vertex="1" parent="1">
          <mxGeometry x="450" y="190.5" width="50" height="50" as="geometry" />
        </mxCell>
      </root>
    </mxGraphModel>
  </diagram>
</mxfile>
